<svg width="147" height="61" viewBox="0 0 147 61" fill="none" xmlns="http://www.w3.org/2000/svg">
<path d="M146.998 59.2376H145.379V54.3099H146.998V59.2376ZM142.835 58.0754C142.928 58.0754 143.005 58.0444 143.066 57.9824C143.128 57.9205 143.159 57.843 143.159 57.75V57.3409C143.159 57.2479 143.128 57.1705 143.066 57.1085C143.005 57.0465 142.928 57.0155 142.835 57.0155H141.586V58.0754H142.835ZM139.967 59.2376V54.3099H141.586V55.8439H143.39C143.81 55.8439 144.146 55.971 144.399 56.2251C144.652 56.4793 144.778 56.8171 144.778 57.2386V57.843C144.778 58.2645 144.652 58.6023 144.399 58.8564C144.146 59.1106 143.81 59.2376 143.39 59.2376H139.967ZM139.042 54.3099V59.2376H137.423V55.565H135.758V59.2376H134.139V54.3099H139.042ZM131.687 55.8439C131.687 55.596 131.564 55.472 131.317 55.472H130.207C129.96 55.472 129.837 55.596 129.837 55.8439V57.7035C129.837 57.9515 129.96 58.0754 130.207 58.0754H131.317C131.564 58.0754 131.687 57.9515 131.687 57.7035V55.8439ZM133.306 57.843C133.306 58.3079 133.175 58.672 132.913 58.9355C132.651 59.1989 132.289 59.3306 131.826 59.3306H129.698C129.236 59.3306 128.874 59.1989 128.611 58.9355C128.349 58.672 128.218 58.3079 128.218 57.843V55.7045C128.218 55.2396 128.349 54.8755 128.611 54.612C128.874 54.3486 129.236 54.2169 129.698 54.2169H131.826C132.289 54.2169 132.651 54.3486 132.913 54.612C133.175 54.8755 133.306 55.2396 133.306 55.7045V57.843ZM124.101 59.2376V60.8183H122.482V54.3099H123.916L124.009 54.7747C124.169 54.6694 124.342 54.5764 124.527 54.4958C124.687 54.4276 124.866 54.364 125.064 54.3052C125.261 54.2463 125.464 54.2169 125.674 54.2169H126.09C126.51 54.2169 126.846 54.3439 127.099 54.5981C127.352 54.8522 127.478 55.1901 127.478 55.6115V57.75C127.478 58.2149 127.347 58.5791 127.085 58.8425C126.823 59.1059 126.46 59.2376 125.998 59.2376H124.101ZM124.101 57.9824H125.489C125.736 57.9824 125.859 57.8585 125.859 57.6105V55.8904C125.859 55.7975 125.828 55.72 125.767 55.658C125.705 55.596 125.628 55.565 125.535 55.565H125.212C125.094 55.565 124.971 55.5744 124.841 55.5929C124.712 55.6115 124.592 55.6332 124.481 55.658C124.351 55.6828 124.225 55.7138 124.101 55.751V57.9824ZM119.938 55.751C119.938 55.658 119.907 55.5806 119.846 55.5186C119.784 55.4566 119.707 55.4255 119.614 55.4255H118.551V56.2623H119.614C119.707 56.2623 119.784 56.2314 119.846 56.1694C119.907 56.1074 119.938 56.0299 119.938 55.937V55.751ZM120.216 57.657C120.216 57.564 120.185 57.4866 120.123 57.4246C120.062 57.3626 119.985 57.3316 119.892 57.3316H118.551V58.1219H119.892C119.985 58.1219 120.062 58.0909 120.123 58.029C120.185 57.9669 120.216 57.8895 120.216 57.7965V57.657ZM121.835 57.9359C121.835 58.1219 121.801 58.2939 121.733 58.4519C121.665 58.61 121.571 58.748 121.451 58.8658C121.331 58.9835 121.186 59.0749 121.016 59.14C120.846 59.2051 120.657 59.2376 120.447 59.2376H116.932V54.3099H120.17C120.379 54.3099 120.569 54.3424 120.739 54.4075C120.908 54.4726 121.053 54.5625 121.173 54.6771C121.294 54.7918 121.388 54.9251 121.455 55.0769C121.523 55.2287 121.557 55.3915 121.557 55.565C121.557 55.8254 121.492 56.0516 121.363 56.2438C121.233 56.4359 121.052 56.5661 120.817 56.6343C121.095 56.6839 121.334 56.8202 121.534 57.0434C121.735 57.2665 121.835 57.564 121.835 57.9359ZM116.284 59.2376H111.15V52.7292H116.284V54.0309H112.815V55.2861H115.544V56.5878H112.815V57.9359H116.284V59.2376ZM103.656 57.3781V56.2159H105.506C105.599 56.2159 105.676 56.1849 105.738 56.1229C105.799 56.061 105.83 55.9834 105.83 55.8904V55.7975C105.83 55.7045 105.799 55.627 105.738 55.565C105.676 55.5031 105.599 55.472 105.506 55.472H103.008V54.3099H106.061C106.271 54.3099 106.461 54.3424 106.63 54.4075C106.8 54.4726 106.945 54.5625 107.065 54.6771C107.185 54.7918 107.279 54.9251 107.347 55.0769C107.415 55.2287 107.449 55.3915 107.449 55.565C107.449 55.8254 107.38 56.0516 107.241 56.2438C107.102 56.4359 106.894 56.5661 106.617 56.6343C106.894 56.6839 107.133 56.8187 107.333 57.0388C107.534 57.2604 107.634 57.5547 107.634 57.9219C107.634 58.3388 107.508 58.6735 107.255 58.9261C107.002 59.1772 106.666 59.3027 106.247 59.3027C105.876 59.3027 105.496 59.3027 105.104 59.3027C104.712 59.3027 104.353 59.2748 104.026 59.219C103.644 59.219 103.274 59.1942 102.916 59.1447V58.029C103.231 58.0646 103.548 58.1002 103.869 58.1359C104.146 58.1359 104.446 58.1359 104.766 58.1359C105.087 58.1359 105.395 58.1359 105.691 58.1359C105.784 58.1359 105.861 58.1064 105.923 58.0459C105.984 57.9871 106.015 57.9127 106.015 57.8243V57.6895C106.015 57.6012 105.984 57.5269 105.923 57.4679C105.861 57.4076 105.784 57.3781 105.691 57.3781H103.656ZM100.557 54.3099H102.268V59.2376H100.649V56.5413L99.0767 59.2376H97.3652V54.3099H98.9842V57.0062L100.557 54.3099Z" fill="white"/>
<path d="M1.75774 59.3141C1.15337 59.3141 0.70928 59.1731 0.425594 58.891C0.141843 58.609 0 58.1658 0 57.5646V54.6188C0 53.9741 0.146451 53.5061 0.439419 53.2148C0.732387 52.9235 1.20266 52.7778 1.85023 52.7778H5.18073V54.0795H2.22027C1.85023 54.0795 1.66519 54.2639 1.66519 54.6343V57.5924C1.66519 57.7334 1.70685 57.8466 1.79007 57.9287C1.87334 58.0124 1.98587 58.0543 2.12778 58.0543C2.24498 58.0543 2.38061 58.0543 2.53487 58.0543C2.689 58.0543 2.84941 58.0543 3.0159 58.0543C3.18245 58.0543 3.35047 58.0543 3.52009 58.0543C3.68972 58.0543 3.85467 58.028 4.01501 57.9752C4.39125 57.9752 4.77978 57.9752 5.18073 57.9752V59.1932C4.76743 59.2738 4.35733 59.3141 3.95029 59.3141C3.59876 59.3141 3.22713 59.3141 2.83552 59.3141C2.44385 59.3141 2.08463 59.3141 1.75774 59.3141ZM8.23363 55.6136V59.2862H6.61459V55.6136H5.08818V54.3585H9.76004V55.6136H8.23363ZM15.3108 57.8915C15.3108 58.3564 15.1798 58.7206 14.9177 58.984C14.6555 59.2474 14.2932 59.3792 13.8306 59.3792H11.7028C11.2402 59.3792 10.878 59.2474 10.6158 58.984C10.3537 58.7206 10.2226 58.3564 10.2226 57.8915V55.753C10.2226 55.2882 10.3537 54.924 10.6158 54.6606C10.878 54.3971 11.2402 54.2655 11.7028 54.2655H13.8306C14.2932 54.2655 14.6555 54.3971 14.9177 54.6606C15.1798 54.924 15.3108 55.2882 15.3108 55.753V57.8915ZM13.6918 55.8925C13.6918 55.6446 13.5685 55.5206 13.3218 55.5206H12.2116C11.965 55.5206 11.8416 55.6446 11.8416 55.8925V57.7521C11.8416 58 11.965 58.124 12.2116 58.124H13.3218C13.5685 58.124 13.6918 58 13.6918 57.7521V55.8925ZM18.4563 57.4267H17.7624V59.2862H16.1434V54.3585H17.7624V56.1714H18.5025L19.0113 55.1487C19.0668 55.0309 19.1362 54.9194 19.2195 54.814C19.3028 54.7087 19.3999 54.6156 19.5109 54.5351C19.6219 54.4545 19.7468 54.3894 19.8856 54.3398C20.0243 54.2902 20.1801 54.2655 20.3528 54.2655C20.4453 54.2655 20.5363 54.2701 20.6256 54.2793C20.7151 54.2887 20.7937 54.2995 20.8616 54.3119L21.0928 54.3585V55.6136H20.769C20.6519 55.6136 20.5547 55.6431 20.4777 55.7019C20.4005 55.7608 20.3435 55.8244 20.3065 55.8925L19.844 56.8223L21.2316 59.2862H19.4739L18.4563 57.4267ZM27.6613 54.3585H29.3728V59.2862H27.7538V56.5899L26.181 59.2862H24.4696V54.3585H26.0885V57.0548L27.6613 54.3585ZM34.7385 59.3141C34.1341 59.3141 33.6901 59.1731 33.4063 58.891C33.1226 58.609 32.9807 58.1658 32.9807 57.5646V54.6188C32.9807 53.9741 33.1272 53.5061 33.4202 53.2148C33.7132 52.9235 34.1834 52.7778 34.831 52.7778H38.1615V54.0795H35.2011C34.831 54.0795 34.646 54.2639 34.646 54.6343V57.5924C34.646 57.7334 34.6876 57.8466 34.7709 57.9287C34.8541 58.0124 34.9667 58.0543 35.1086 58.0543C35.2258 58.0543 35.3614 58.0543 35.5156 58.0543C35.6698 58.0543 35.8301 58.0543 35.9967 58.0543C36.1632 58.0543 36.3313 58.0543 36.5009 58.0543C36.6704 58.0543 36.8355 58.028 36.9958 57.9752C37.372 57.9752 37.7606 57.9752 38.1615 57.9752V59.1932C37.7482 59.2738 37.3381 59.3141 36.9311 59.3141C36.5795 59.3141 36.2079 59.3141 35.8162 59.3141C35.4246 59.3141 35.0654 59.3141 34.7385 59.3141ZM40.7056 55.4277C40.4588 55.4277 40.3355 55.5516 40.3355 55.7996V56.3109H41.9081V55.7996C41.9081 55.5516 41.7848 55.4277 41.5381 55.4277H40.7056ZM38.7165 55.7453C38.7165 55.282 38.8476 54.9209 39.1097 54.659C39.3718 54.3971 39.7342 54.2655 40.1967 54.2655H42.0469C42.5095 54.2655 42.8719 54.3971 43.134 54.6606C43.3961 54.924 43.5271 55.2882 43.5271 55.753V57.4731H40.3355V57.828C40.3355 57.9164 40.3663 57.9907 40.428 58.0497C40.4897 58.1085 40.5668 58.1379 40.6593 58.1379C40.9245 58.1379 41.2128 58.1379 41.5243 58.1379C41.8358 58.1379 42.1271 58.1379 42.3985 58.1379C42.7131 58.1023 43.0276 58.0667 43.3421 58.031V59.1932C42.9844 59.2428 42.6174 59.2676 42.2412 59.2676C41.9205 59.3234 41.5721 59.3513 41.1959 59.3513C40.8196 59.3513 40.4557 59.3513 40.1042 59.3513C39.6848 59.3513 39.3486 59.2242 39.0958 58.9716C38.843 58.7191 38.7165 58.3828 38.7165 57.9643V55.7453ZM46.6726 57.4267H45.9788V59.2862H44.3598V54.3585H45.9788V56.1714H46.7188L47.2276 55.1487C47.2832 55.0309 47.3526 54.9194 47.4358 54.814C47.5191 54.7087 47.6162 54.6156 47.7272 54.5351C47.8382 54.4545 47.9632 54.3894 48.1019 54.3398C48.2407 54.2902 48.3964 54.2655 48.5691 54.2655C48.6616 54.2655 48.7526 54.2701 48.842 54.2793C48.9314 54.2887 49.0101 54.2995 49.0779 54.3119L49.3092 54.3585V55.6136H48.9854C48.8682 55.6136 48.7711 55.6431 48.694 55.7019C48.6169 55.7608 48.5599 55.8244 48.5229 55.8925L48.0603 56.8223L49.448 59.2862H47.6902L46.6726 57.4267ZM54.9062 57.8915C54.9062 58.3564 54.7752 58.7206 54.5131 58.984C54.2509 59.2474 53.8886 59.3792 53.426 59.3792H51.2983C50.8357 59.3792 50.4733 59.2474 50.2112 58.984C49.9491 58.7206 49.818 58.3564 49.818 57.8915V55.753C49.818 55.2882 49.9491 54.924 50.2112 54.6606C50.4733 54.3971 50.8357 54.2655 51.2983 54.2655H53.426C53.8886 54.2655 54.2509 54.3971 54.5131 54.6606C54.7752 54.924 54.9062 55.2882 54.9062 55.753V57.8915ZM53.2872 55.8925C53.2872 55.6446 53.1639 55.5206 52.9172 55.5206H51.807C51.5603 55.5206 51.4371 55.6446 51.4371 55.8925V57.7521C51.4371 58 51.5603 58.124 51.807 58.124H52.9172C53.1639 58.124 53.2872 58 53.2872 57.7521V55.8925ZM59.023 56.1714V54.3585H60.642V59.2862H59.023V57.4267H57.3578V59.2862H55.7389V54.3585H57.3578V56.1714H59.023ZM63.7412 56.9618C63.7288 57.1229 63.7027 57.2702 63.6626 57.4034C63.6224 57.5367 63.5808 57.6498 63.5377 57.7428C63.4883 57.8544 63.4328 57.9504 63.3712 58.031H64.9901V55.6136H63.8337L63.7412 56.9618ZM66.6091 54.3585V58.031H67.3029V60.4019H65.7672L65.6747 59.2862H62.8254L62.7329 60.4019H61.1971V58.031H61.7984C61.8663 57.9504 61.931 57.8574 61.9927 57.7521C62.042 57.6653 62.0883 57.5631 62.1315 57.4453C62.1746 57.3275 62.2024 57.1974 62.2147 57.0548L62.3998 54.3585H66.6091Z" fill="white"/>
<path d="M74.506 53.0667H76.797L74.7997 56.1958L76.8558 59.325H74.5647L73.3898 57.4357L72.2149 59.325H69.9238L71.9799 56.1958L69.9825 53.0667H72.2736L73.3898 54.9559L74.506 53.0667ZM79.1586 55.4274C78.9119 55.4274 78.7886 55.5513 78.7886 55.7992V56.3106H80.3613V55.7992C80.3613 55.5513 80.2379 55.4274 79.9912 55.4274H79.1586ZM77.1695 55.745C77.1695 55.2817 77.3006 54.9206 77.5627 54.6587C77.8249 54.3968 78.1872 54.2652 78.6498 54.2652H80.5C80.9626 54.2652 81.3249 54.3968 81.587 54.6603C81.8492 54.9237 81.9802 55.2879 81.9802 55.7527V57.4728H78.7886V57.8277C78.7886 57.9161 78.8194 57.9904 78.8811 58.0493C78.9427 58.1082 79.0198 58.1376 79.1123 58.1376C79.3775 58.1376 79.6659 58.1376 79.9774 58.1376C80.2888 58.1376 80.5802 58.1376 80.8516 58.1376C81.1661 58.102 81.4807 58.0664 81.7952 58.0307V59.1929C81.4375 59.2425 81.0705 59.2673 80.6943 59.2673C80.3736 59.323 80.0252 59.351 79.6489 59.351C79.2727 59.351 78.9088 59.351 78.5573 59.351C78.1379 59.351 77.8017 59.2239 77.5489 58.9713C77.296 58.7187 77.1695 58.3824 77.1695 57.964V55.745ZM86.097 56.1711V54.3582H87.716V59.2859H86.097V57.4263H84.4318V59.2859H82.8129V54.3582H84.4318V56.1711H86.097ZM90.8152 56.9615C90.8029 57.1226 90.7766 57.2698 90.7366 57.4031C90.6965 57.5364 90.6548 57.6495 90.6117 57.7425C90.5623 57.8541 90.5068 57.9501 90.4452 58.0307H92.0641V55.6133H90.9077L90.8152 56.9615ZM93.6831 54.3582V58.0307H94.3769V60.4016H92.8412L92.7487 59.2859H89.8993L89.8068 60.4016H88.2711V58.0307H88.8724C88.9403 57.9501 89.005 57.8571 89.0667 57.7518C89.1161 57.665 89.1623 57.5627 89.2055 57.445C89.2486 57.3272 89.2764 57.1971 89.2888 57.0545L89.4738 54.3582H93.6831Z" fill="white"/>
<path fill-rule="evenodd" clip-rule="evenodd" d="M83.35 9.99212H83.2986C82.9552 9.99212 82.9716 10.4983 83.2829 10.5799C83.6075 10.6654 83.6412 10.1015 83.35 9.99212ZM82.6647 13.3329H82.6133C82.2699 13.3329 82.2864 13.839 82.5976 13.9206C82.9223 14.006 82.9559 13.4421 82.6647 13.3329ZM79.5213 12.1695H79.4699C79.1264 12.1695 79.1429 12.6759 79.4542 12.7573C79.7789 12.8427 79.8125 12.2788 79.5213 12.1695ZM80.2283 9.08236H80.1769C79.8335 9.08236 79.8499 9.58867 80.1612 9.66996C80.4858 9.75535 80.5196 9.19156 80.2283 9.08236ZM79.2571 10.4694H79.191C78.7484 10.4694 78.7696 11.1217 79.1708 11.2268C79.5891 11.3364 79.6325 10.6102 79.2571 10.4694ZM83.6514 11.8564H83.5851C83.1426 11.8564 83.1639 12.5087 83.565 12.6139C83.9835 12.7238 84.0267 11.9973 83.6514 11.8564ZM81.8446 8.66483H81.7921C81.4413 8.66483 81.4581 9.1819 81.7761 9.26536C82.1077 9.35222 82.1421 8.7764 81.8446 8.66483ZM80.943 13.5565H80.8768C80.4342 13.5565 80.4556 14.2089 80.8567 14.314C81.2751 14.424 81.3184 13.6975 80.943 13.5565ZM70.8559 17.1296C71.189 16.9495 71.6319 17.3173 71.5612 17.8157L71.3297 17.8158C71.3455 17.6807 71.2917 17.5071 71.2622 17.4236C71.2165 17.2936 71.1163 17.2912 71.0163 17.2912C70.9022 17.2913 70.8312 17.5471 70.8559 17.7024C70.8619 17.7407 70.8683 17.7792 70.8763 17.8157L70.5518 17.8158C70.5278 17.5477 70.6229 17.2556 70.8559 17.1296ZM104.014 17.8158C105.099 17.4672 106.974 17.5858 107.688 17.744C107.776 17.7635 107.88 17.7874 107.997 17.8157L109.302 17.8158C108.836 17.5986 108.422 17.4587 108.149 17.472L108.204 17.3225C108.877 17.0226 110.345 17.3843 111.629 17.8157L113.108 17.8158C112.917 17.7891 112.696 17.7252 112.441 17.618C111.057 17.0336 108.01 16.7018 107.528 16.7173C105.326 16.7882 103.082 17.4471 101.827 17.8157L104.014 17.8158ZM80.262 10.0993C80.7746 9.57779 81.5702 9.37469 82.1497 9.7807C83.4595 10.6981 83.3166 13.1858 81.4869 13.1858C80.6871 13.1859 79.0968 11.2847 80.262 10.0993ZM81.1228 9.32822C82.3409 8.93232 83.9678 11.3085 82.9367 12.723C82.6877 13.065 82.1732 13.4693 81.8184 13.5043C79.7386 13.7098 78.4225 10.206 81.1228 9.32822ZM101.147 15.0669C106.387 8.54123 112.843 8.89443 116.711 11.7219C118.713 13.1852 119.597 15.8289 119.429 17.8157L119.33 17.8158C119.337 17.5793 119.328 17.3404 119.305 17.1083C117.785 9.90141 110.98 9.50239 105.915 11.6771C103.042 12.9109 100.96 15.1915 100.144 16.9838L100.14 17.109C100.126 17.3984 100.315 17.6923 100.537 17.6988C100.697 17.6186 101.019 16.8279 101.206 16.5739C102.733 14.5043 105.36 12.3058 108.308 11.6428C112.145 10.7799 116.347 12.2537 117.55 17.292L117.552 17.2904C117.592 17.3696 117.64 17.5869 117.679 17.8157L117.307 17.8158C117.246 17.524 117.156 17.2154 117.032 16.891C114.297 9.72322 106.951 11.5926 102.946 15.314C106.451 13.9949 111.262 11.7789 114.232 15.849C114.635 16.4026 114.716 17.2273 114.518 17.8157L113.489 17.8158C114.773 17.5932 113.746 14.8755 111.497 14.182C109.48 13.5603 106.813 14.0642 104.663 15.0939C103.206 15.7919 102.169 16.8177 100.889 17.8157L99.5359 17.8158C99.4645 15.6384 97.1727 15.4011 95.9113 16.8981C95.6865 17.1649 95.485 17.4738 95.3042 17.8157L94.7795 17.8158C95.1028 17.0973 95.5157 16.4242 96.0301 15.9648C97.2801 14.8486 99.0028 14.86 99.8378 16.7939C105.565 4.9682 114.862 7.47248 118.889 12.3662C120.231 13.9965 120.85 16.1364 120.717 17.8157L120.201 17.8158C120.197 17.6102 120.184 17.4029 120.169 17.1968C119.949 11.4275 114.847 8.69312 110.08 9.11334C106.782 9.40401 103.821 11.5719 102.017 13.7833C101.75 14.1452 101.256 14.5658 101.147 15.0669ZM93.7761 17.8158H93.1794C93.2027 17.4135 93.2317 17.0521 93.2763 16.7727C94.0224 12.1078 95.289 9.64679 96.8832 9.08435C97.7775 8.76878 98.8456 8.77794 99.9188 9.50258C99.936 9.12281 99.2574 8.35337 99.0215 8.2066C96.4847 6.62917 93.3623 8.34473 92.8539 12.2898C92.7601 13.0195 92.6459 13.9214 92.5919 14.6535C92.5349 15.424 92.4861 16.6055 92.4767 17.8157L92.365 17.8158C92.3718 16.4945 92.3978 15.1725 92.406 13.86C92.221 14.529 91.6445 15.6446 91.2368 15.9727C89.8958 17.0514 88.257 16.1556 87.7537 16.0535C88.0937 16.6749 88.4863 17.2527 88.8739 17.8157L88.6508 17.8158C88.078 17.019 87.3061 16.0551 87.1021 16.0132L87.0298 16.1125C87.0393 16.1995 87.4941 17.0175 87.9562 17.8157L87.5067 17.8158C87.4941 17.7854 87.4814 17.7553 87.4687 17.725C86.9808 16.5792 86.2396 15.5293 85.6155 15.6504C85.6159 15.6997 85.6149 15.7485 85.6122 15.7971C85.843 16.0859 86.3481 16.9137 86.8155 17.8157L86.6806 17.8158C86.2887 17.0564 85.8497 16.4256 85.5345 16.2791C85.474 16.5045 85.3822 16.7159 85.2666 16.9051C85.3402 17.1122 85.4864 17.314 85.6039 17.4824C85.6775 17.5882 85.7523 17.6998 85.8258 17.8157L85.6278 17.8158C85.4541 17.5113 85.244 17.225 84.9893 17.2692C84.806 17.4625 84.5938 17.6111 84.368 17.6967C84.3593 17.732 84.3544 17.7712 84.3527 17.8157L84.0733 17.8158C84.0681 17.8009 84.0628 17.7862 84.0573 17.7721C83.9232 17.787 83.7871 17.7786 83.6517 17.7443C83.6324 17.7661 83.6141 17.7898 83.597 17.8157L81.1741 17.8158C81.3066 17.7536 81.4293 17.6522 81.5332 17.5076C81.655 17.3331 81.8534 16.9302 81.9116 16.4938C81.9795 15.9845 81.9032 15.4288 81.7449 15.1353C81.5811 15.1547 81.4166 15.1675 81.2552 15.1722C81.4081 16.8144 79.8191 16.3406 80.2824 15.0746C80.1732 15.0443 80.0725 15.0058 79.9819 14.9598C79.4547 15.4893 79.4088 16.3761 79.7032 17.0508C79.8642 17.4203 80.1422 17.6904 80.446 17.8157L78.8422 17.8158C78.97 17.6259 79.0892 17.4864 79.1591 17.3849C79.1157 17.2441 79.0819 17.0918 79.059 16.9287L79.025 16.9274C78.7556 17.043 78.4459 17.3548 78.1857 17.8157L77.6044 17.8158C77.8501 17.3296 78 16.8423 77.9515 16.4507C77.8543 16.5031 77.7558 16.5349 77.6574 16.5483C77.4601 16.8819 77.2118 17.4438 76.9802 17.799L76.9693 17.8158H76.7135C76.9993 17.2902 77.2099 16.7944 77.2286 16.4936C77.0703 16.4322 76.9192 16.3279 76.7825 16.1903C76.6824 16.2142 76.5722 16.2751 76.453 16.3785C76.0775 16.705 75.6427 17.298 75.2737 17.8157L75.1415 17.8158C75.5609 17.2816 75.945 16.7224 76.1702 16.4172C76.3156 16.2199 76.4314 16.0227 76.5118 15.844C76.3911 15.6493 76.294 15.4241 76.2293 15.1819C76.2002 15.1934 76.1694 15.207 76.137 15.223C75.416 15.5777 73.925 16.9702 73.3699 17.8157L72.3675 17.8158C72.2745 17.2021 72.2487 16.4962 72.3497 16.2322C72.0427 16.0722 69.144 17.106 67.2739 17.8157L66.6459 17.8158C67.5029 17.4056 68.5038 16.8525 68.8306 16.7462C69.7933 16.4335 70.7486 16.0948 71.7289 15.9095C71.9772 15.8625 72.6839 16.0297 72.5082 15.4336C71.5993 14.5056 67.6401 16.058 65.8221 17.1615C65.3417 17.4532 65.1726 17.6588 65.1398 17.8157L63.9187 17.8158C64.0992 16.7413 63.7142 16.1883 63.4362 16.0099C62.9879 15.7219 62.4642 16.2592 62.3242 16.0169C62.1467 15.7101 62.1035 14.9692 61.4879 14.9625C61.1913 14.959 60.8768 15.1392 60.6731 15.4202C60.2117 16.0566 59.974 17.0918 60.4769 17.2324C60.5243 15.8574 62.0597 14.7138 62.141 16.9721C62.6813 16.1405 63.7595 16.7329 63.7667 17.8157L63.4988 17.8158C63.491 17.7315 63.4714 17.6463 63.4379 17.5595C63.2541 17.0863 62.5383 17.3187 62.3033 17.6899C62.2819 17.7237 62.257 17.7663 62.23 17.8157L61.7965 17.8158C61.8667 17.5714 61.9129 17.3244 61.9129 17.1546L61.913 16.7917C61.913 15.4169 61.1255 15.8419 60.9204 16.8041C60.8615 17.0806 60.8664 17.4683 60.9391 17.8157L60.6191 17.8158C60.4073 17.5179 60.1821 17.2559 59.994 17.1274C59.9676 17.3136 59.9026 17.5489 59.81 17.8157L59.5586 17.8158C59.6448 17.4509 59.6736 17.1439 59.6195 16.9404C59.2081 16.5565 58.7146 17.0208 58.2773 17.8157L58.0225 17.8158C58.3376 17.283 58.6909 16.8771 59.0404 16.6132C58.9057 16.192 57.5065 15.9346 57.1783 15.9538L56.5509 16.0309C56.6563 16.5938 56.693 17.201 56.6823 17.8157L56.4377 17.8158C56.4142 16.6283 56.1871 15.8309 55.6864 16.5134C55.4623 16.8188 55.3204 17.292 55.2396 17.8157L55.057 17.8158C55.123 17.3726 55.2392 16.9113 55.4254 16.3377C55.0039 16.2001 53.4877 17.0108 52.7668 17.8157L52.5987 17.8158C52.6752 17.6986 52.7305 17.5913 52.7401 17.524C52.2379 17.3815 51.5749 15.5591 53.0762 15.3028C52.2704 13.4632 53.9366 13.2598 54.4492 14.2657C54.5187 13.9322 54.378 12.7908 54.8831 12.5075C55.3289 12.2576 55.77 12.7986 55.9898 13.2519C56.2301 12.6221 56.8233 12.357 57.1991 12.8956C57.3571 13.1218 57.5509 13.4659 57.4779 14.0229C57.707 13.8017 57.8909 13.5217 58.1843 13.4625C58.8087 13.337 59.4761 13.7966 58.9467 15.0343C58.7796 15.4252 58.4809 15.7578 58.2609 15.8421C58.6596 15.9262 59.2266 16.3719 59.4199 16.4885C59.8531 16.7501 59.8802 16.198 60.007 15.766C60.2364 14.9842 60.0495 13.9098 59.5302 13.3869C58.8411 12.694 58.1957 13.1528 57.7817 12.4261C57.2249 11.4479 56.3194 11.8107 55.9282 12.52C55.626 11.7483 55.0384 11.6854 54.618 11.928C54.0773 12.2396 53.9571 12.915 53.937 12.9349C53.7562 13.1126 53.4675 13.0623 53.2496 13.1294C52.8864 13.2411 52.6052 13.4961 52.5091 14.3353C52.4596 14.7655 52.5632 14.9341 52.2524 15.118C51.7771 15.3993 51.6524 15.8665 51.6524 16.5645L51.6524 17.0185C51.6524 17.2185 51.6695 17.534 51.721 17.8157L51.222 17.8158C51.2124 17.7729 51.2035 17.731 51.1954 17.6902C51.0747 16.9844 50.1173 16.7926 49.6609 17.5468C49.6106 17.63 49.5726 17.721 49.5432 17.8157L49.3461 17.8158C49.4104 17.6125 49.4683 17.4175 49.5581 17.2782C49.8113 16.8859 49.9915 16.8633 50.2691 16.6191C50.5545 16.3681 50.6855 16.1014 50.7443 15.6368C50.7843 15.3212 51.054 14.8723 51.2069 14.5918C51.8872 13.3424 52.9007 12.9399 53.611 11.3077C54.8826 8.38582 52.9003 7.06314 50.7891 8.46826C48.9838 9.66977 47.1473 13.2209 46.4687 15.5381C46.2932 16.1384 46.7514 16.9193 46.5932 17.8157L46.3389 17.8158C46.455 16.9043 46.1004 16.1289 45.5384 15.5816C44.6863 14.7517 43.3568 14.446 42.4672 14.9849C42.4742 15.0841 42.4781 15.1847 42.4773 15.2844C42.8 15.0727 44.3263 14.7704 45.2724 15.9829C45.6139 16.4206 45.8533 17.1334 45.8767 17.8157L45.6161 17.8158C45.6027 17.4672 45.5308 17.0547 45.3705 16.7068C44.8813 15.645 43.7512 14.8643 42.455 15.702C42.4503 15.7478 42.4447 15.7932 42.4384 15.8385L42.4415 15.8444C43.219 15.443 43.9661 15.6674 44.5972 16.1668C45.1433 16.599 45.4015 17.1917 45.4781 17.8157L45.0637 17.8158C44.5148 16.5766 43.628 15.7841 42.423 16.0413C42.397 16.1569 42.3236 16.3868 42.2881 16.4962C42.4999 16.9019 42.8857 17.3926 43.3334 17.8157L42.8391 17.8158C42.5282 17.4423 42.3074 17.0147 42.2574 16.5865C42.198 16.7549 42.1273 16.9147 42.0468 17.0646C42.1307 17.2635 42.2513 17.5334 42.4113 17.8157L42.142 17.8158C42.058 17.6438 41.9824 17.4649 41.9187 17.2821C41.8453 17.3956 41.7659 17.5021 41.6812 17.6001C41.6984 17.6685 41.72 17.7411 41.7449 17.8157L38.6952 17.8158C38.7033 17.7521 38.7076 17.6956 38.7076 17.6483C38.6643 17.6005 38.6223 17.5505 38.5817 17.4987C38.4872 17.5293 38.3874 17.6509 38.2907 17.8157L37.5661 17.8158C37.9015 17.4688 38.1493 17.1652 38.1307 17.0475C37.8849 16.9502 37.423 17.3626 36.876 17.8157L36.607 17.8158C37.1684 17.4391 37.7107 16.9862 38.0871 16.5817C38.0147 16.3759 37.9585 16.1575 37.9215 15.9296C37.0453 16.3918 36.0283 16.8242 35.1169 17.1732C34.9805 17.2253 34.0872 17.5175 34.0794 17.5229C34.0457 17.6176 34.0396 17.7171 34.0548 17.8157L33.8723 17.8158C33.7765 17.4916 33.7129 17.1172 33.7109 16.8829C33.6939 14.9638 35.5321 14.1954 36.7932 14.3529C35.1677 13.1419 32.3255 14.7206 33.0016 17.8157L32.8112 17.8158C32.7712 17.5394 32.7508 17.2426 32.7508 16.9268C32.6437 15.267 33.5141 13.7974 34.9683 13.523C34.1203 12.5836 34.235 11.0113 34.9557 10.0395C35.6121 9.15444 36.7967 8.76699 37.7153 9.80796C37.431 8.23649 38.6726 6.89102 39.9164 6.80993C41.2403 6.72371 42.5725 8.01726 42.2641 10.1959C42.9108 9.1979 43.9472 8.75656 44.9966 8.99352C46.186 9.26261 47.3194 10.3869 46.5895 12.2568C46.1022 13.5056 45.0925 14.6861 44.6348 14.6149C45.6453 14.7281 45.9392 15.4531 46.1552 15.7014C46.5205 14.7519 47.7021 10.7858 49.7779 8.54725C51.2448 6.96566 53.929 6.36276 54.3116 8.90986C54.5194 10.2946 54.0214 12.019 53.3378 12.6608C53.7257 12.7956 53.8621 12.3883 54.1208 12.0408C54.4284 11.628 54.8471 11.4908 55.16 11.5482C55.5625 11.6225 55.8602 11.9516 56.2606 11.7216C56.6071 11.5228 56.9906 11.4408 57.343 11.662C57.6478 11.8532 57.8384 12.1566 58.1172 12.4157C58.4413 12.7173 58.7209 12.5333 59.1528 12.8112C60.0758 13.4047 60.0432 13.7689 60.3878 14.7486C60.6558 14.7487 61.2094 14.3878 61.2152 13.9769C60.611 13.6842 60.0735 13.5445 60.1221 12.4332C60.285 8.6896 64.3992 8.10751 67.5447 9.19233C70.2873 10.1386 72.0578 12.3735 72.866 14.6142C73.0772 13.7101 75.2515 12.368 75.6993 12.1459C74.7703 11.957 71.5419 12.5781 71.5419 8.98462L71.542 8.93943C71.542 6.24883 73.3139 5.75743 75.037 6.42376C75.9326 6.77024 76.6946 7.70253 77.3264 8.08837C76.407 7.26964 75.2701 5.8658 75.4741 3.90636C75.6474 2.2399 76.9099 1.43467 78.156 1.48434C78.1583 1.47967 78.1626 1.47992 78.169 1.48517C79.1834 1.53036 80.1844 2.14254 80.5754 3.31921C80.5739 3.26871 80.5744 3.21488 80.5769 3.15868C80.5769 0.919976 82.4826 -0.508826 83.9353 0.16973C84.8461 0.595132 85.4624 2.28906 85.2055 3.58818C86.0312 2.87538 87.2279 2.42098 88.1877 2.76989C90.7588 3.7048 90.5187 8.71495 88.2927 9.64628C92.1664 9.58688 92.2656 13.2582 92.4601 13.4324C92.4421 11.2981 93.2546 8.76904 94.6722 7.55524C96.9821 5.57673 99.7033 7.90371 100.525 10.0873C100.986 11.3126 100.707 12.6254 99.767 12.7847C99.4074 12.8461 98.9916 12.598 98.8947 12.0986C98.7538 11.3721 99.302 11.3203 99.6096 11.1633C99.0556 8.57433 97.0305 10.768 95.7584 12.9011C94.7389 14.6102 94.1483 16.3664 93.7761 17.8158ZM30.8185 17.8158C28.9339 15.7989 27.034 13.5844 27.0634 9.83517C27.0729 8.6007 27.5218 7.6526 28.6713 7.38991C28.9384 7.32897 29.3301 7.2971 29.6211 7.47811C30.0037 7.71629 30.2282 8.19533 29.9217 8.18304C29.6932 8.17369 29.3382 7.97245 29.2662 8.42397C29.216 8.7412 29.3918 9.00875 29.5991 9.10598C30.4562 9.51 30.891 8.26446 30.0836 7.53815C29.1111 6.66354 26.6688 6.72249 26.0337 10.1553C25.5409 12.8189 26.811 16.3897 29.4673 17.26C29.5911 17.3216 29.875 17.5418 30.194 17.8157L30.8185 17.8158ZM29.3406 17.8158H26.9281C25.7616 17.6235 24.6295 17.6509 23.5752 17.8157L21.6547 17.8158C22.167 17.6701 22.6916 17.5624 23.2232 17.4974C24.8716 17.2952 26.4072 17.5264 27.9875 17.7909C26.844 15.7092 19.3259 12.0234 18.7302 11.7153C18.7204 11.7517 18.7097 11.7876 18.6977 11.8223C18.7135 11.8351 18.7289 11.8563 18.7402 11.8866C21.1274 13.6743 18.5208 16.4743 17.8281 14.1174C17.6703 13.5809 17.6825 13.1458 17.6915 12.6722L17.6923 12.6453C17.652 12.6373 17.6136 12.627 17.5768 12.615C17.2789 16.2904 14.4082 14.0711 15.7265 12.2929C16.0272 11.8875 16.325 11.7357 16.6471 11.5654C16.7333 11.5199 16.8091 11.5055 16.8657 11.512C16.8633 11.494 16.8608 11.4754 16.8589 11.4571C14.3185 12.3803 14.5976 7.96618 16.2833 8.96606C16.6704 9.19559 16.8848 9.51698 17.121 9.86231C17.1515 9.9066 17.174 9.94712 17.1899 9.98264C17.2042 9.9619 17.2188 9.94187 17.234 9.92324C15.6216 7.02551 18.7851 5.89351 18.7425 8.41904C18.7328 8.99621 18.5168 9.74011 18.3722 10.1705L18.3871 10.1854C18.3921 10.1808 18.3972 10.1765 18.4027 10.1726C19.7184 6.90856 21.7473 10.4968 20.025 11.4349C19.6696 11.6284 19.2265 11.6611 18.8896 11.6546C22.6129 12.9514 26.2581 15.7407 29.3406 17.8158ZM79.261 14.1933L79.264 14.2045C79.1175 14.7675 78.7892 15.326 78.3108 15.6491C77.5566 16.1585 76.6087 15.8801 76.6087 14.5676C76.6087 14.0675 76.751 13.6012 76.9837 13.2664C77.1548 13.0202 77.7569 12.5826 78.0839 12.5556C78.1946 12.5464 78.2723 12.6023 78.3214 12.6796C78.336 12.7124 78.3509 12.745 78.3662 12.7775C78.407 12.9075 78.3889 13.0479 78.3261 13.0595C77.784 13.1613 77.2529 14.2953 78.0319 14.2953C78.4271 14.2953 78.6727 14.2166 78.9001 13.8223C78.929 13.8176 78.9553 13.8162 78.9795 13.8182C79.0693 13.945 79.1635 14.0703 79.261 14.1933ZM78.7456 13.4684C78.7122 13.4151 78.6796 13.3615 78.648 13.308C78.5619 13.2494 78.4281 13.251 78.2752 13.3718C77.8919 13.6745 78.2393 14.0361 78.5653 13.8176C78.7137 13.7179 78.7636 13.5806 78.7456 13.4684ZM78.0013 11.6699C77.9463 11.3628 77.933 11.0587 77.971 10.7635C77.7393 10.6849 77.463 10.8638 77.2292 10.4491C77.0508 10.1332 77.3195 9.68219 77.5372 9.66567C77.7117 9.65249 77.9436 9.86992 78.1446 10.1184C78.2236 9.93272 78.3279 9.75279 78.4598 9.57984C77.4675 8.35087 76.0085 9.47979 76.6735 10.8025C76.8769 11.2073 77.6076 11.7164 77.9645 11.7067C77.9775 11.6957 77.9897 11.6834 78.0013 11.6699ZM78.8546 9.1586L78.8365 9.15316C78.529 9.05119 78.2067 8.58668 78.2554 8.23853C78.3385 7.64556 78.8585 7.07255 79.4844 7.02736C80.0368 6.98749 80.6112 7.42729 80.7508 8.03217C80.7391 8.08293 80.7192 8.12633 80.6934 8.16377C80.4762 8.22676 80.261 8.31048 80.0523 8.40752C80.0206 8.26676 79.9366 8.08728 79.9147 8.03364C79.7731 7.6862 79.6055 7.55812 79.2838 7.61624C79.0731 7.65407 78.8491 7.81473 78.9357 8.12313C79.0498 8.52952 79.1733 8.61318 79.4039 8.75758L79.3866 8.76795C79.1861 8.89136 79.0095 9.02174 78.8546 9.1586ZM79.5687 8.65978C79.6478 8.61439 79.7283 8.57004 79.8101 8.52741C79.8282 8.45546 79.8105 8.34978 79.7515 8.19776C79.7061 8.08063 79.3431 7.69408 79.2512 7.89954C79.1134 8.20659 79.2885 8.66003 79.5448 8.66003L79.5687 8.65978ZM81.4143 8.04273C81.5723 8.03768 81.7287 8.04862 81.8819 8.0787C81.9022 7.95549 82.0012 7.78561 82.0324 7.74413C82.2173 7.49879 82.6492 7.70176 82.6682 8.0572C82.6734 8.15488 82.6549 8.30632 82.5988 8.3782C82.6514 8.41673 82.7009 8.45623 82.746 8.49259C82.8346 8.5516 82.9174 8.60217 82.9954 8.64774C83.2698 8.15199 82.947 7.45507 82.4719 7.27424C82.0015 7.0954 81.3818 7.42153 81.4143 8.04273ZM81.9588 8.09528C82.0379 8.11423 82.1161 8.13862 82.1931 8.1687C82.2193 8.17581 82.2458 8.18387 82.2719 8.19335C82.3235 8.21159 82.3742 8.23572 82.4234 8.26343C82.4414 8.16224 82.4884 8.04888 82.459 7.94371C82.375 7.64293 82.0066 7.70643 81.9591 8.01521C81.9557 8.03844 81.9583 8.06821 81.9588 8.09528ZM83.469 8.91075C83.4827 8.8808 83.5024 8.84867 83.5289 8.81429C83.7754 8.49387 84.0392 8.3115 84.2883 8.24615C85.0071 8.26772 85.3703 9.08166 85.317 9.78332C85.2787 10.2878 85.0252 10.7343 84.5341 10.7866C84.499 10.6411 84.4578 10.4957 84.4106 10.351L84.3994 10.3172C84.5323 10.2046 84.6911 10.0767 84.7813 9.84906C85.162 8.88733 84.6671 8.68167 84.1788 8.92106C84.0462 8.98622 83.9444 9.12595 83.8612 9.22267C83.742 9.08742 83.615 8.99659 83.469 8.91075ZM83.9855 9.38519C84.0085 9.4195 84.0314 9.45604 84.0541 9.49554C84.1072 9.56179 84.1428 9.63968 84.1686 9.71745C84.2108 9.80873 84.2533 9.91044 84.2967 10.0256C84.3625 9.96991 84.4803 9.89137 84.5481 9.76661C84.6896 9.5061 84.7185 9.14733 84.3715 9.13632C84.2615 9.1328 84.1035 9.28258 83.9855 9.38519ZM84.6755 11.7399C84.6789 11.8017 84.681 11.8634 84.6819 11.9249C85.5373 11.3964 85.8019 11.9131 85.6302 12.3748C85.447 12.8677 84.9129 13.1784 84.6184 12.7348C84.5878 12.9046 84.5462 13.0694 84.4933 13.2274C84.512 13.2614 84.5341 13.2957 84.5604 13.331C84.7182 13.5427 85.1654 13.6145 85.3797 13.6145L85.5784 13.6146C85.8397 13.6146 86.0861 13.4466 86.2814 13.1949C86.5931 12.6428 86.6616 11.928 86.429 11.3177C86.2608 11.1362 86.0326 11.0281 85.8042 10.994C85.4756 10.9453 85.1781 11.11 84.9521 11.2264C84.7918 11.3088 84.7451 11.4421 84.6755 11.7399ZM84.6797 12.1515C84.6762 12.2521 84.6692 12.3518 84.6588 12.4501C84.6966 12.4987 84.7558 12.5349 84.8252 12.5575C85.363 12.7323 85.8098 11.9443 85.0905 11.9761C84.9303 11.9833 84.7662 12.0528 84.6797 12.1515ZM84.1083 13.9946C84.7348 14.1744 85.4224 16.4085 84.1567 16.8841C82.8902 17.3603 82.4698 15.7017 82.7042 14.9383C82.8692 14.8892 83.0234 14.8339 83.1609 14.7745C83.4314 15.8106 84.2552 15.5225 83.9293 14.2184C83.9931 14.1473 84.0528 14.0724 84.1083 13.9946ZM83.8165 14.3364C83.7418 14.4097 83.6618 14.4787 83.5768 14.5431C83.5162 14.5889 83.4446 14.6335 83.3642 14.6768C83.3656 14.722 83.3701 14.7698 83.3789 14.8203C83.479 15.4006 84.0211 15.2776 83.8892 14.5528C83.8725 14.4619 83.8473 14.3905 83.8165 14.3364ZM80.7941 15.1615C80.7415 15.1571 80.6896 15.1518 80.6387 15.1453C80.5627 15.2084 80.5474 15.3491 80.5474 15.5207H80.5472V15.657C80.5472 15.8869 80.5585 15.8807 80.6796 15.9824C80.8142 15.8704 80.9114 15.8346 80.9114 15.5662C80.9114 15.3928 80.8845 15.2439 80.7941 15.1615ZM79.3002 13.5463C78.9674 13.0794 78.7001 12.5838 78.5439 12.0897C78.4177 11.4116 78.5377 10.706 78.8432 10.1025C79.3899 9.02181 80.5174 8.5219 81.4404 8.51064C82.8913 8.59097 84.5072 10.0627 84.0829 12.3311C83.8903 13.3622 83.2566 14.2733 82.1994 14.5637C81.6418 14.717 80.849 14.5582 80.1312 14.1687C79.8005 13.9892 79.525 13.7786 79.3002 13.5463ZM86.4201 13.8002C86.9041 14.0466 87.9466 14.6754 89.1086 15.0722C90.195 15.4432 91.4535 15.6389 91.5601 14.7638C90.3426 14.3857 88.1431 14.6846 86.7888 13.2902C86.6924 13.4832 86.5692 13.6569 86.4201 13.8002ZM86.9128 12.99C86.9464 13.0439 86.9971 13.0942 87.0635 13.1395C88.0045 13.7815 90.76 14.4773 91.5747 14.351C91.7702 14.2662 91.8945 13.9254 91.7225 13.7219C90.7889 12.6171 88.5152 11.878 87.3658 12.3437C87.2154 12.4046 87.1009 12.473 87.0197 12.5446C86.9968 12.697 86.961 12.8463 86.9128 12.99ZM87.0452 11.9814C87.0662 12.0089 87.0872 12.0363 87.107 12.0629L87.5643 12.0258C89.4576 11.7894 90.7592 12.359 91.8009 13.4296C92.1452 13.335 91.8867 12.6312 91.7556 12.3608C91.2418 11.3013 88.4561 11.1445 87.2538 11.4143C87.1214 11.444 87.0328 11.4817 86.9767 11.5249C87.0134 11.6718 87.0361 11.8249 87.0452 11.9814ZM86.8619 11.1876C87.0198 11.1992 87.1767 11.1785 87.2912 11.1521C88.5297 10.8656 90.1771 10.9271 91.2967 11.6546C91.422 11.1801 90.7348 10.3664 89.3403 10.134C88.4258 9.98117 86.7095 10.1349 86.3088 10.529C86.5549 10.678 86.7389 10.9103 86.8619 11.1876ZM85.5919 10.1308C86.5229 10.2028 88.4385 9.75247 88.9873 8.62515C89.2198 8.14815 89.3864 7.60133 89.4815 7.04112C89.5106 7.56913 87.8923 8.63667 87.5587 8.87171C87.1384 9.16807 85.977 9.48242 85.6738 9.62823C85.6678 9.7942 85.6418 9.96306 85.5919 10.1308ZM85.6666 9.36138C85.6833 9.36931 85.7023 9.37245 85.7244 9.37021C86.6867 9.28188 89.0275 7.88271 89.4851 6.71366C89.5611 5.57353 89.5257 4.2812 88.9798 3.56654C88.6004 4.34713 85.9044 8.3526 85.553 8.78402L85.554 8.84796C85.6109 9.00875 85.6502 9.18158 85.6666 9.36138ZM85.4419 8.58866C85.4508 8.5902 85.4599 8.5909 85.4693 8.59122C85.6106 8.45373 86.1522 7.68864 86.2306 7.54263C86.9378 6.23026 88.0449 4.61974 88.8702 3.43782C88.5045 3.05614 87.9471 2.89727 87.1127 3.11733C86.4121 4.04712 85.0955 6.60951 84.9628 7.99908C84.9781 8.01649 84.9931 8.03473 85.0074 8.05381C85.1761 8.1815 85.3267 8.36674 85.4419 8.58866ZM84.8444 7.95184C85.0537 6.65381 86.0739 4.30655 86.7363 3.25027C86.3055 3.01063 85.3321 3.36741 84.9562 4.38925C84.6234 5.29388 84.2224 6.98333 83.9317 8.12364C84.2197 7.82978 84.5494 7.80347 84.8444 7.95184ZM82.0078 6.73945C82.0195 6.03824 82.006 4.4434 82.0983 2.97472C82.1663 1.88907 82.3115 0.861984 82.4467 0.378206C81.9785 0.649347 81.5292 1.14612 81.1895 1.81034C81.1971 2.1876 81.1566 3.10344 81.2434 4.00731C81.3537 5.15485 81.5706 6.34477 81.5715 6.87944C81.7186 6.80839 81.8651 6.76198 82.0078 6.73945ZM82.5973 0.299284C82.5424 0.757138 82.321 1.89688 82.2648 3.06606C82.1952 4.51425 82.2481 6.04969 82.1563 6.72435C82.3817 6.71468 82.5936 6.76698 82.778 6.87873C82.8319 6.2526 83.3153 4.76914 83.6463 3.30935C83.9149 2.12423 84.0023 0.87869 84.0726 0.490285C83.6507 0.0911272 83.1182 0.0533623 82.5973 0.299284ZM82.8986 6.96374C82.9689 7.02051 83.034 7.08721 83.0928 7.16325C83.1308 6.71372 83.7367 5.45921 84.1908 4.19543C84.4911 3.35979 84.6781 2.45881 84.7851 2.03686C84.6606 1.37873 84.4462 0.90807 84.178 0.60038C84.2 1.07001 84.0635 2.17819 83.8257 3.3059C83.511 4.79845 83.0501 6.36391 82.8986 6.96374ZM83.1614 7.26093C83.2583 7.41308 83.3339 7.59602 83.3825 7.80974C84.0132 6.94646 84.947 4.10044 84.8932 2.9952C84.8833 2.78986 84.8663 2.59726 84.8437 2.41592C84.753 2.8837 84.5718 3.55502 84.3429 4.22545C83.8943 5.53955 83.2904 6.89493 83.1614 7.26093ZM81.4618 6.93692C81.3953 6.4075 81.1999 5.15076 81.104 3.97172C81.0442 3.23363 81.0334 2.51763 81.064 2.07616C81.0515 2.10433 81.039 2.13288 81.0269 2.162C80.4915 3.44646 80.9911 5.38592 81.1091 7.18534C81.2254 7.08651 81.3435 7.00374 81.4618 6.93692ZM78.0355 7.63513C77.2812 6.76704 76.0363 4.98331 76.0402 3.51233C75.8179 4.17008 75.827 4.99541 76.2125 5.93429C76.4267 6.45596 77.4451 8.25876 77.8969 8.25876C77.9168 8.02423 77.9651 7.81653 78.0355 7.63513ZM76.2014 3.13589C76.4377 4.81535 77.1958 6.43368 78.1215 7.50762C78.1289 7.51632 78.2207 7.26176 78.226 7.27245C78.3271 7.12632 78.4462 7.00554 78.5765 6.90959C78.0916 6.03376 76.9031 3.52545 76.7377 2.4549C76.4875 2.65634 76.3625 2.82987 76.2014 3.13589ZM79.1225 6.65803C79.3395 6.60689 79.5622 6.60459 79.77 6.64754C80.0341 4.90797 79.2711 2.95225 79.0776 2.05363C78.8498 1.94776 78.6108 1.88804 78.3707 1.87076C78.7791 2.96582 79.0725 5.63556 79.1225 6.65803ZM78.2383 1.86577C77.7448 1.86238 77.2537 2.0359 76.8494 2.35396C76.9101 2.45388 77.1004 3.26301 77.5599 4.40282C77.8695 5.17054 78.5456 6.33844 78.6938 6.83162C78.8094 6.7623 78.9318 6.7102 79.0568 6.67487C79.0577 6.34298 78.8054 4.66551 78.6336 3.67196C78.4909 2.84708 78.3325 2.231 78.2383 1.86577ZM79.3152 2.18447C79.6187 3.11835 80.1564 5.98927 79.8879 6.67717C80.2581 6.78765 80.5636 7.04772 80.6744 7.43279C80.674 7.42319 80.6739 7.41346 80.6741 7.40322C81.0026 6.52554 80.6717 4.69399 80.4892 3.9849C80.2595 3.09384 79.8267 2.50957 79.3152 2.18447ZM76.7632 12.9004C76.7845 12.8728 76.8074 12.8449 76.8318 12.8173C76.3499 11.7297 73.0779 13.8982 72.8053 15.3423C73.0985 15.3426 75.3295 14.025 76.2459 13.8037C76.3424 13.4879 76.5094 13.1799 76.7632 12.9004ZM76.1834 14.0571C76.1284 14.0583 76.0335 14.112 75.8712 14.1784C75.2703 14.4248 73.2733 15.3151 72.8568 15.8906C72.6438 16.1852 72.4211 17.6703 72.9512 17.7493C73.0861 17.477 75.3291 15.3697 76.1599 14.8227C76.1298 14.5744 76.1348 14.3149 76.1834 14.0571ZM77.2128 8.65446C77.2422 8.65158 77.263 8.63961 77.2742 8.61676C77.0531 8.12396 75.2605 6.16817 73.2973 6.58596C72.8355 6.68434 73.7579 6.70969 74.6664 7.1893C75.6746 7.72147 76.7929 8.58802 77.1596 8.65158C77.1772 8.65209 77.1949 8.65299 77.2128 8.65446ZM76.7356 8.75137C76.1475 8.23021 74.5629 7.24154 73.5735 6.97987C73.1001 6.85467 72.7446 6.95875 72.5737 7.18015C73.2744 7.46109 74.5128 7.83432 75.0133 8.26772C75.3329 8.54424 75.8807 8.96606 76.215 9.36054C76.3343 9.09356 76.5105 8.87241 76.7356 8.75137ZM76.157 9.50661C75.8742 9.04581 75.3354 8.66599 74.7464 8.37116C73.6818 7.83842 72.4522 7.58296 72.2697 7.63032C72.1428 7.72186 72.0409 7.85871 72.0409 8.21312C72.041 8.94762 74.0734 9.60627 75.3477 9.8529C75.6532 9.91179 75.8864 9.95384 76.0506 9.96459C76.0701 9.80707 76.1057 9.65197 76.157 9.50661ZM76.0345 10.1847C75.2211 9.91415 73.285 9.68027 72.2825 8.97419C71.7091 8.57023 71.7927 9.88298 72.1404 10.01C72.9633 10.5996 75.3321 11.0065 76.1112 10.7874C76.0541 10.6005 76.0295 10.3936 76.0345 10.1847ZM76.194 10.9976C75.7268 10.9761 74.7973 10.993 73.9767 10.8471C73.0457 10.6812 72.2063 10.4774 72.1773 10.3335C72.0186 10.7083 72.6625 11.222 73.1931 11.4589C73.4468 11.6769 74.687 11.8058 75.4755 11.6442C76.0172 11.5332 76.268 11.3928 76.3862 11.2745C76.3092 11.1952 76.2453 11.1013 76.194 10.9976ZM45.2342 10.4285C44.7995 9.53349 43.8024 9.7517 43.052 10.4143C42.278 11.0982 41.7581 12.2553 41.8427 13.1518C41.8783 13.2018 41.9126 13.2535 41.9458 13.3066C43.0547 10.2183 44.3076 10.3112 45.2342 10.4285ZM42.0534 13.4152C42.4293 13.5867 45.0994 11.7724 45.3312 10.7602C43.9968 10.173 42.0712 12.8946 42.0534 13.4152ZM42.135 13.6584C42.1955 13.7892 42.249 13.9264 42.2946 14.0695C42.4866 14.4431 43.9342 14.0533 44.8304 13.2287C45.4241 12.6825 45.9684 11.843 45.5532 11.0113C44.5852 13.3188 42.7324 13.4453 42.135 13.6584ZM40.1732 12.9298C39.2137 12.9298 38.4355 13.9965 38.4355 15.3121C38.4355 16.6277 39.2137 17.6949 40.1732 17.6949C41.1327 17.6949 41.9107 16.6277 41.9107 15.3121C41.9108 13.9965 41.1327 12.9297 40.1732 12.9298ZM40.1732 13.4879C39.4385 13.4879 38.8426 14.3048 38.8426 15.3121C38.8427 16.3198 39.4385 17.1363 40.1732 17.1363C40.9079 17.1363 41.5036 16.3196 41.5036 15.3121C41.5037 14.3049 40.9079 13.4879 40.1732 13.4879ZM40.3235 12.2016C40.4254 12.2106 40.5256 12.2281 40.6235 12.2539C41.2005 11.6375 41.7901 8.58725 40.7898 8.22285C40.981 8.80815 41.0102 11.5814 40.3235 12.2016ZM40.8848 12.345C40.9732 12.3832 41.0593 12.4284 41.1427 12.4802C41.7564 11.6024 42.0815 10.3814 42.0124 9.33001C41.9316 8.1004 41.3118 7.10206 39.9845 7.15391C38.9495 7.19455 37.9559 8.13286 38.1344 9.88061C38.1985 10.507 38.7538 12.0515 39.0588 12.5773C39.1476 12.5059 39.1653 12.5011 39.2611 12.4458C38.8232 11.6671 38.5916 10.9023 38.5483 10.2116C38.325 6.64702 41.6347 6.99299 41.639 9.77103C41.64 10.4792 41.4265 11.3451 40.8848 12.345ZM41.3854 12.6553C41.4768 12.7312 41.5638 12.8148 41.6461 12.9065C42.3826 9.53369 44.3297 9.19604 45.326 10.118C46.1006 10.8349 46.296 12.3612 44.9263 13.5152C44.0394 14.2623 42.754 14.4389 42.6376 14.3214C42.8189 14.621 44.0863 14.3272 44.3921 14.234C48.0898 13.1129 46.3658 7.21472 42.9526 9.94558C42.5819 10.2419 42.0875 10.7382 41.912 11.287C41.8153 11.5894 41.4933 12.2016 41.3854 12.6553ZM37.8694 15.3433C37.8691 15.3201 37.8689 15.2964 37.8689 15.273C37.8689 15.0832 37.8817 14.8975 37.9064 14.7172C36.8024 14.0021 33.6753 15.1103 33.9968 16.7159C34.6522 15.9798 37.071 15.5834 37.8694 15.3433ZM38.0732 14.0036C38.114 13.8842 38.1602 13.7684 38.2116 13.6574C37.7578 13.1845 37.291 12.7003 36.8203 12.2351C36.5359 11.9539 36.2737 11.641 36.075 11.6528C35.8196 11.6682 35.7036 12.0956 36.148 12.4993C36.7142 13.0135 37.4415 13.7229 38.0732 14.0036ZM38.4445 13.2381C38.4791 13.1856 38.5152 13.1346 38.5525 13.0853C38.3867 12.6987 37.9498 11.9332 37.4791 11.3687C37.2182 11.0552 36.5784 10.3377 36.2036 10.8572C36.2036 11.3535 36.6745 11.6711 36.9489 11.9434C37.4701 12.461 38.0846 12.9878 38.4445 13.2381ZM39.4206 12.3633C39.5383 12.309 39.6602 12.2667 39.7857 12.2386C39.317 11.3526 38.9047 9.80745 39.4255 8.26395C38.0188 9.32387 39.4007 12.3165 39.4206 12.3633ZM18.7912 11.2156L18.7873 11.2124C18.7877 11.2288 18.7881 11.2451 18.7881 11.2617C18.7881 11.3154 18.7858 11.3679 18.7812 11.4196C18.8555 11.3818 18.9533 11.3561 19.0585 11.3616C19.4225 11.381 20.2966 11.3945 20.4543 10.7278C20.7312 9.55679 20.096 8.89309 19.4769 9.01342C19.1952 9.06841 18.9625 9.348 18.74 9.7051C18.6221 9.89457 18.5924 10.0443 18.5023 10.1975C18.4865 10.2241 18.472 10.2458 18.4584 10.2634C18.4802 10.2896 18.5009 10.3173 18.521 10.346C18.5479 10.3121 18.58 10.2804 18.6032 10.2513C18.9596 9.81129 19.284 9.43639 19.7465 9.65908C20.0347 9.7983 19.9453 10.3994 19.7978 10.6239C19.5637 10.9799 19.1424 11.2852 18.7912 11.2156ZM18.6028 10.4804C18.6765 10.6195 18.731 10.7782 18.7612 10.9504C18.8845 10.8944 19.1139 10.8876 19.2279 10.8731C19.6354 10.8217 20.0158 10.0551 19.4566 9.91831C19.2388 9.86525 18.9345 10.0696 18.7652 10.2786C18.7395 10.3106 18.6683 10.4135 18.6028 10.4804ZM17.9512 12.664C17.9361 12.6647 17.921 12.6652 17.9055 12.6652L17.874 12.6647C17.8767 12.7033 17.8777 12.7458 17.8763 12.7918C17.8546 13.6772 18.074 14.2406 18.3634 14.5234C18.9158 15.0638 19.7226 14.5796 19.5909 13.3535C19.5497 12.9679 19.3444 12.65 19.0829 12.3467C18.9442 12.1859 18.8347 12.1461 18.7227 12.0232C18.6944 11.9925 18.6736 11.9644 18.6587 11.9398C18.6427 12.0039 18.6233 12.0653 18.6002 12.1237L18.6078 12.1323C18.9818 12.5441 19.3037 12.9229 19.2172 13.5847C19.1634 13.9973 18.7164 13.9722 18.5311 13.8088C18.2617 13.5707 17.9981 13.1132 17.9512 12.664ZM18.5309 12.2704C18.4431 12.4262 18.3243 12.5461 18.1742 12.611C18.2114 12.7702 18.2393 12.9658 18.2602 13.0774C18.3627 13.6207 18.9753 14.0128 18.9843 13.234C18.9877 12.9308 18.7918 12.5514 18.6141 12.3558C18.5994 12.3396 18.5668 12.3081 18.5309 12.2704ZM16.9136 11.807L16.9348 11.8104C16.9251 11.781 16.9161 11.7509 16.9079 11.7205C16.8827 11.7429 16.8501 11.7653 16.8089 11.7865C16.181 12.1109 15.8469 12.5919 15.7242 13.0576C15.4732 14.011 16.1075 14.8978 16.9178 14.2319C17.1617 14.0318 17.2967 13.6499 17.4005 13.2023C17.4557 12.9645 17.4404 12.8109 17.4803 12.6218C17.4833 12.6069 17.4866 12.5933 17.4898 12.5804C17.461 12.5675 17.4335 12.5528 17.4072 12.5368L17.4057 12.5426C17.2386 13.1591 17.0775 13.6973 16.5923 13.7932C16.2898 13.8529 16.1661 13.2632 16.221 12.9708C16.3084 12.5065 16.5786 11.9685 16.9136 11.807ZM17.2939 12.4547C17.1708 12.3485 17.0787 12.2077 17.0132 12.0455C16.9169 12.1682 16.7328 12.3076 16.6419 12.3879C16.2981 12.6922 16.2197 13.613 16.7618 13.3794C16.9727 13.2884 17.1737 12.9139 17.2528 12.6212C17.2607 12.5928 17.2752 12.5258 17.2939 12.4547ZM18.1591 9.92824L18.1454 9.94187C18.1856 9.98296 18.2251 10.0295 18.2635 10.0808C18.2544 10.0743 18.2455 10.0682 18.2361 10.0623C18.2402 9.92824 18.2646 9.76028 18.3161 9.61069C18.5453 8.94314 18.5913 8.43267 18.5269 8.06482C18.2764 6.63019 16.3499 7.36002 17.0794 9.36547C17.158 9.58144 17.2439 9.67815 17.3104 9.84112C17.344 9.81052 17.379 9.78466 17.4146 9.76373C17.2477 9.18042 17.1265 8.65446 17.4286 8.1575C17.6241 7.83541 18.0038 8.16032 18.1057 8.42794C18.2675 8.85315 18.3293 9.50079 18.1591 9.92824ZM17.5347 9.71304C17.6752 9.67476 17.8258 9.70459 17.9725 9.79881C17.991 9.62106 18.0515 9.37911 18.0774 9.24731C18.1845 8.70586 17.7931 7.94947 17.5047 8.62047C17.3923 8.88189 17.4257 9.34429 17.5097 9.63469C17.5144 9.65114 17.5238 9.67892 17.5347 9.71304ZM17.0552 10.2428C17.0701 10.2055 17.0853 10.1703 17.1008 10.1381C17.0517 10.1089 16.9917 10.0493 16.9283 9.9555C16.6097 9.48229 16.2873 9.25307 16.0001 9.1931C15.1391 9.0133 14.6703 10.2684 15.4955 11.1205C15.9229 11.5619 16.3647 11.4242 16.8507 11.3506C16.8493 11.3213 16.8484 11.2915 16.8484 11.2617C16.8484 11.2303 16.8495 11.1978 16.8514 11.1641C16.8141 11.1648 16.7735 11.1588 16.7413 11.1588C16.2617 11.1589 15.8377 11.1399 15.6029 10.5493C15.4567 10.1815 15.8167 9.81699 16.0358 9.78569C16.375 9.73742 16.8226 9.8883 17.0552 10.2428ZM16.8676 10.9912C16.8882 10.829 16.9245 10.6561 16.9697 10.4973C16.8509 10.4285 16.674 10.2187 16.5811 10.1235C16.2531 9.78767 15.5962 10.0078 15.9449 10.6229C16.0808 10.8626 16.4067 10.9899 16.6345 10.9899C16.6709 10.99 16.7846 10.9776 16.8676 10.9912ZM17.2697 10.4165C16.8497 11.1053 17.2061 12.3225 17.9376 12.1216C18.6 11.9396 18.6147 11.1369 18.2324 10.525C18.0765 10.2754 17.838 10.1336 17.6193 10.1635C17.4875 10.2083 17.368 10.2966 17.2697 10.4165ZM48.7713 17.8158C49.6829 16.1839 51.4448 14.5046 52.128 12.2697C52.4127 9.66753 51.1991 9.74203 49.9008 11.2101C48.7047 12.5632 47.437 15.0996 47.2024 17.8157L47.5262 17.8158C47.6601 15.3868 50.7109 9.31401 51.9101 10.7646C52.6766 11.6918 50.6507 14.4273 50.2478 15.1379C50.0438 15.4976 49.1444 16.9595 48.4245 17.8157L48.7713 17.8158ZM97.6216 17.8158C97.2868 17.5152 96.833 17.5222 96.3776 17.8157L97.6216 17.8158ZM54.3963 16.3733C53.9793 15.9534 53.33 15.4319 52.9484 15.5379C52.3127 15.7149 52.129 16.6958 52.8564 17.1832C53.1329 17.3386 53.3044 17.0626 53.5525 16.8551C53.7556 16.6849 54.0906 16.5433 54.3963 16.3733ZM34.0842 17.0356C34.6146 17.2227 36.9451 16.1464 37.7569 15.6923C37.2538 15.5696 34.0941 16.328 34.0842 17.0356ZM62.6941 15.3941C63.453 15.448 63.9137 15.6898 64.1655 16.4938C64.3941 16.4923 64.9002 16.1231 65.5368 15.8209C69.0339 14.1606 67.0223 13.4403 65.01 14.0203C64.2228 14.247 62.8646 14.8224 62.6941 15.3941ZM55.1218 16.0117C55.1627 15.334 53.6267 13.1047 53.1949 14.1864C52.9468 14.8086 53.4851 15.4135 53.8363 15.6573C54.2212 15.9246 54.7231 16.4956 55.1218 16.0117ZM57.7994 14.0311C57.4178 14.4295 57.0907 15.0807 57.0751 15.4333C57.0612 15.7446 57.2945 15.7909 57.8791 15.6897C58.3527 15.6073 58.8293 15.2212 58.901 14.3861L58.901 14.2953C58.901 13.3934 58.3079 13.5002 57.7994 14.0311ZM85.5786 14.3406C85.6124 15.4227 88.8964 16.0653 89.5835 16.0653C89.8714 16.0651 90.769 16.2019 90.8039 15.6553C89.638 15.4549 88.0298 15.2041 86.814 14.3707C86.5916 14.2182 86.3698 13.9102 86.2128 14.0703C85.9744 14.3134 85.8087 14.1911 85.5786 14.3406ZM51.3876 17.2908H51.3874V17.064C51.3874 16.6399 51.4616 15.7005 51.6316 15.3563C51.9794 14.6521 52.248 15.2172 52.2474 14.1174L52.0798 14.0636C51.8474 14.3302 51.8145 14.6583 51.6058 14.867C51.545 14.9276 51.1697 15.5079 51.0981 15.6232C50.9667 15.8346 50.7097 16.3296 50.8356 16.5951C50.9167 16.7665 51.2834 17.2748 51.3876 17.2908ZM56.253 13.7962V13.9777C56.253 14.0505 56.3336 15.4801 56.3371 15.4963C56.4848 16.1956 56.8547 15.4592 56.9482 15.2031C57.1466 14.6589 57.5195 12.9791 56.7166 12.9791C56.3612 12.979 56.253 13.3352 56.253 13.7962ZM56.0486 14.8755C56.0353 14.3921 55.9927 13.8961 55.8566 13.523C55.679 13.037 55.0366 12.3434 54.8089 13.1319C54.6277 13.7602 54.8484 14.4214 55.0718 15.0071C55.5383 16.2281 56.0851 16.2192 56.0486 14.8755ZM61.3246 14.4414C62.0596 14.4327 62.5344 14.6484 62.446 15.327C63.5443 14.1253 64.9203 13.7702 66.2817 13.6143C68.1161 13.4035 67.8657 14.5451 67.0855 15.2326C66.2285 15.9874 64.2934 16.6068 64.2173 16.7732C64.2432 16.9773 64.2827 17.298 64.2018 17.7098C64.1631 17.9066 65.1014 17.1777 65.3002 17.0575C67.0819 15.9819 70.881 14.801 71.7429 14.5226C68.4822 12.7147 66.0792 12.2372 63.4577 13.2897C62.7682 13.5665 62.0638 13.9491 61.3246 14.4414ZM26.5 10.2981C26.8495 13.1934 28.0215 15.6292 29.311 16.7916C27.6613 16.374 25.3171 12.1309 26.5 10.2981ZM99.1158 11.9805C99.1158 12.23 99.2242 12.4344 99.4135 12.4342C99.8332 12.4342 100.056 11.5267 99.5789 11.5267H99.4796C99.2899 11.5267 99.1157 11.6711 99.1158 11.9805ZM72.0881 13.8266C70.3888 11.4966 64.697 8.83868 62.6169 11.1309C62.2561 11.5286 62.3636 12.0907 62.7832 12.3304C63.6526 12.8264 67.8516 11.6306 72.0881 13.8266ZM40.0471 8.02244C39.4193 8.5155 39.6027 11.6067 40.0651 12.142C40.6206 11.7561 40.5956 8.43312 40.0471 8.02244ZM38.7333 12.879C38.6288 12.1036 38.4305 11.1023 37.9734 10.3597C37.3288 9.31222 36.1367 9.2251 35.377 9.86621C34.6173 10.5076 34.2899 11.8769 34.9467 12.9213C35.5212 13.8347 37.2011 14.3322 37.9915 14.3261C37.3528 14.0078 36.1403 13.5126 35.7471 12.5867C34.9985 10.8243 36.5171 9.70875 37.5374 10.79C38.2054 11.4977 38.4154 11.9337 38.7333 12.879ZM77.734 10.4833L77.8334 10.4852L77.9593 10.4739L78.0376 10.3472C77.9459 10.1384 77.8199 9.98392 77.6348 9.98392C77.2882 9.98405 77.3136 10.4832 77.734 10.4833ZM70.8785 12.0204C70.2082 11.1011 68.1616 9.61754 65.9735 9.28994C63.1601 8.86889 60.1821 9.97611 60.3315 12.6045C60.3887 13.6126 61.354 13.6957 61.9071 13.6068C62.1535 13.5669 63.6135 13.0225 63.7332 12.8428C63.0325 13.1359 61.259 12.2176 62.5206 10.8623C64.3829 8.86249 69.0225 10.7756 70.8785 12.0204ZM93.6874 16.3374C94.6419 13.7991 96.1248 9.77417 98.6071 9.78966C98.933 9.79171 99.3437 9.93528 99.5634 10.2979C99.8847 10.8277 99.9712 11.6721 100.219 11.9654C100.684 10.2137 99.4873 9.33808 98.7341 9.22318C96.0337 8.8125 93.7625 12.7445 93.6211 16.3374L93.6328 16.4844L93.6874 16.3374ZM29.4763 8.6224C29.4925 7.5715 30.4934 8.98513 29.8403 8.98513C29.6688 8.98513 29.5202 8.84105 29.4763 8.6224Z" fill="white"/>
<path d="M17.7559 45.3814C13.0557 45.795 9.1564 46.0019 6.05787 46.0019C3.99224 46.0019 2.47485 45.5264 1.50519 44.5752C0.535584 43.624 0.0507812 42.1353 0.0507812 40.1092V30.1848C0.0507812 28.0138 0.551522 26.4371 1.55249 25.455C2.55371 24.4731 4.16103 23.9819 6.3742 23.9819H17.7559V28.3238H7.63875C6.3742 28.3238 5.74186 28.9441 5.74186 30.1848V40.1092C5.74186 40.5848 5.88396 40.9621 6.1686 41.2411C6.45306 41.5204 6.81663 41.66 7.25924 41.66C7.70193 41.66 8.18673 41.6547 8.71371 41.6444C9.24063 41.634 9.78868 41.6186 10.3578 41.5978C10.9269 41.5771 11.5011 41.5564 12.0807 41.5357C12.6606 41.5151 13.4087 41.4737 14.3257 41.4118C15.2424 41.3497 16.3859 41.2774 17.7559 41.1947V45.3814ZM35.632 45.6917H29.9411V28.3238H23.3017V23.9819H42.2713V28.3238H35.632V45.6917ZM63.3089 29.8746C63.3089 28.6341 62.6766 28.0138 61.4121 28.0138H56.0372C54.7726 28.0138 54.1403 28.6341 54.1403 29.8746V39.799C54.1403 41.0395 54.7726 41.66 56.0372 41.66H61.4121C62.6766 41.66 63.3089 41.0395 63.3089 39.799V29.8746ZM68.9998 39.799C68.9998 41.97 68.4993 43.5467 67.4981 44.5286C66.4968 45.5107 64.8898 46.0019 62.6766 46.0019H54.7726C52.5595 46.0019 50.9522 45.5107 49.951 44.5286C48.9499 43.5467 48.4492 41.97 48.4492 39.799V29.8746C48.4492 27.7036 48.9499 26.1271 49.951 25.145C50.9522 24.1628 52.5595 23.6719 54.7726 23.6719H62.6766C64.8898 23.6719 66.4968 24.1628 67.4981 25.145C68.4993 26.1271 68.9998 27.7036 68.9998 29.8746V39.799ZM92.8829 23.6719C93.4099 23.6719 94.3585 23.7752 95.7286 23.9819V28.1688H94.4638C94.1477 28.1688 93.8631 28.2669 93.6103 28.4634C93.3572 28.6598 93.1676 28.8717 93.0412 29.0993L90.0376 34.6818L96.2027 45.6917H90.1958L85.2952 36.8527H82.4498V45.6917H76.7587V23.9819H82.4498V32.5108H85.2952L88.4569 26.6181C88.9204 25.7496 89.4949 25.0417 90.1798 24.4937C90.8648 23.9458 91.7659 23.6719 92.8829 23.6719ZM120.244 45.6917H102.697V23.9819H120.244V28.3238H108.388V32.5108H117.714V36.8527H108.388V41.3497H120.244V45.6917ZM127.37 23.9819H140.649C142.862 23.9819 144.47 24.4731 145.471 25.455C146.472 26.4371 146.973 28.0138 146.973 30.1848V33.286C146.973 35.457 146.472 37.0337 145.471 38.0156C144.47 38.9978 142.862 39.489 140.649 39.489H133.061V45.6917H127.37V23.9819ZM141.281 30.1848C141.281 28.9441 140.649 28.3238 139.385 28.3238H133.061V35.147H139.385C140.649 35.147 141.281 34.5265 141.281 33.286V30.1848Z" fill="white"/>
</svg>
