<svg width="22" height="22" viewBox="0 0 22 22" fill="none" xmlns="http://www.w3.org/2000/svg">
<path d="M17.4155 8.25058C17.4162 8.37122 17.393 8.49081 17.3474 8.6025C17.3018 8.71418 17.2346 8.81576 17.1496 8.90142L11.6496 14.4014C11.4779 14.5721 11.2456 14.668 11.0034 14.668C10.7612 14.668 10.5289 14.5721 10.3571 14.4014L4.85714 8.90142C4.70696 8.72606 4.62849 8.50049 4.6374 8.26978C4.64631 8.03908 4.74195 7.82024 4.9052 7.65698C5.06846 7.49373 5.2873 7.39809 5.51801 7.38918C5.74871 7.38027 5.97428 7.45874 6.14964 7.60892L10.9988 12.4581L15.848 7.60892C15.9756 7.4802 16.1386 7.39222 16.3163 7.35612C16.4939 7.32002 16.6783 7.33741 16.8461 7.40609C17.0139 7.47477 17.1575 7.59166 17.2589 7.74198C17.3602 7.8923 17.4147 8.06929 17.4155 8.25058Z" fill="white"/>
</svg>
