<svg width="40" height="40" viewBox="0 0 40 40" fill="none" xmlns="http://www.w3.org/2000/svg">
<g clip-path="url(#clip0_232_304)">
<path d="M39.5 20C39.5 30.7696 30.7696 39.5 20 39.5C9.23045 39.5 0.5 30.7696 0.5 20C0.5 9.23045 9.23045 0.5 20 0.5C30.7696 0.5 39.5 9.23045 39.5 20Z" fill="white" stroke="white"/>
<path d="M26.3375 17.6318L25.9352 21.1159C25.9185 21.2749 25.844 21.4222 25.7259 21.5299C25.6077 21.6375 25.4542 21.6981 25.2943 21.7H21.6579L21.6398 32.0295C21.641 32.152 21.594 32.2699 21.5089 32.358C21.4239 32.446 21.3076 32.497 21.1852 32.5H17.5011C17.4399 32.5 17.3792 32.4877 17.3229 32.4637C17.2665 32.4398 17.2156 32.4047 17.1731 32.3605C17.1307 32.3164 17.0976 32.2641 17.0758 32.2068C17.0541 32.1495 17.0441 32.0885 17.0466 32.0273V21.7H14.3193C14.2337 21.6991 14.149 21.6814 14.0702 21.6477C13.9914 21.6141 13.92 21.5653 13.8601 21.5041C13.8001 21.4429 13.7528 21.3705 13.7209 21.291C13.6889 21.2116 13.673 21.1266 13.6739 21.0409L13.6602 17.5568C13.659 17.4709 13.6748 17.3855 13.7065 17.3056C13.7383 17.2258 13.7855 17.1529 13.8455 17.0913C13.9054 17.0297 13.9769 16.9805 14.0559 16.9465C14.1348 16.9125 14.2197 16.8944 14.3057 16.8932H17.0466V13.5295C17.0466 9.625 19.3648 7.5 22.7648 7.5H25.5511C25.6373 7.50089 25.7224 7.51878 25.8016 7.55264C25.8809 7.5865 25.9526 7.63567 26.0128 7.69733C26.073 7.75898 26.1204 7.83191 26.1523 7.91193C26.1842 7.99195 26.2001 8.07749 26.1989 8.16364V11.0955C26.2001 11.1816 26.1842 11.2671 26.1523 11.3472C26.1204 11.4272 26.073 11.5001 26.0128 11.5618C25.9526 11.6234 25.8809 11.6726 25.8016 11.7065C25.7224 11.7403 25.6373 11.7582 25.5511 11.7591H23.842C21.9943 11.7591 21.6352 12.6682 21.6352 13.9818V16.8932H25.6966C25.7889 16.8943 25.88 16.915 25.9638 16.9539C26.0476 16.9928 26.1222 17.0489 26.1828 17.1187C26.2433 17.1885 26.2884 17.2703 26.3151 17.3587C26.3417 17.4471 26.3494 17.5402 26.3375 17.6318Z" fill="#005898"/>
</g>
<defs>
<clipPath id="clip0_232_304">
<rect width="40" height="40" fill="white"/>
</clipPath>
</defs>
</svg>
