<svg width="12" height="8" viewBox="0 0 12 8" fill="none" xmlns="http://www.w3.org/2000/svg">
<g clip-path="url(#clip0_1120_495)">
<path d="M2.20741 3.29304L4.50041 5.58604L9.79341 0.293041C9.98201 0.110883 10.2346 0.0100885 10.4968 0.0123669C10.759 0.0146453 11.0098 0.119814 11.1952 0.305222C11.3806 0.49063 11.4858 0.741443 11.4881 1.00364C11.4904 1.26584 11.3896 1.51844 11.2074 1.70704L5.20741 7.70704C5.01988 7.89451 4.76557 7.99983 4.50041 7.99983C4.23525 7.99983 3.98094 7.89451 3.79341 7.70704L0.793407 4.70704C0.611249 4.51844 0.510454 4.26584 0.512733 4.00364C0.515011 3.74144 0.62018 3.49063 0.805589 3.30522C0.990997 3.11981 1.24181 3.01465 1.50401 3.01237C1.7662 3.01009 2.01881 3.11088 2.20741 3.29304Z" fill="#fff"/>
</g>
<defs>
<clipPath id="clip0_1120_495">
<rect width="12" height="8" fill="white"/>
</clipPath>
</defs>
</svg>