<svg width="100" height="100" viewBox="0 0 100 100" fill="none" xmlns="http://www.w3.org/2000/svg">
<circle cx="50" cy="50" r="50" fill="#005898"/>
<path d="M73.6573 35.6409C73.6573 35.0066 73.2741 34.435 72.6874 34.1939L50.593 25.1173C50.2121 24.9609 49.785 24.9609 49.4041 25.1173L27.3097 34.1939C26.723 34.4349 26.3398 35.0066 26.3398 35.6409V64.3591C26.3398 64.9934 26.7229 65.565 27.3097 65.8061L49.4041 74.8827C49.7809 75.0374 50.2045 75.0408 50.591 74.8826C50.6099 74.8763 49.7734 75.2194 72.6874 65.8061C73.2742 65.5651 73.6573 64.9934 73.6573 64.3591V35.6409ZM49.9986 43.1579L41.8576 39.8135L59.4511 32.1386L68.1365 35.7067L49.9986 43.1579ZM29.4684 38.1062L36.4922 40.9916V49.1322C36.4922 49.9961 37.1926 50.6965 38.0565 50.6965C38.9204 50.6965 39.6208 49.9961 39.6208 49.1322V42.2769L48.4343 45.8976V71.1019L29.4684 63.3105V38.1062ZM49.9986 28.2554L55.4214 30.4831L37.8279 38.158L31.8606 35.7066L49.9986 28.2554ZM51.5629 45.8976L70.5287 38.1062V63.3105L51.5629 71.1019V45.8976Z" fill="white"/>
</svg>
