<svg width="100" height="100" viewBox="0 0 100 100" fill="none" xmlns="http://www.w3.org/2000/svg">
<circle cx="50" cy="50" r="50" fill="#005898"/>
<g clip-path="url(#clip0_1911_3)">
<path d="M62.4339 25.0018C56.0605 25.0018 50.7805 29.7716 49.9749 35.9288H47.4014C46.0878 35.9288 44.8531 36.4403 43.9245 37.369L26.4415 54.8521C24.5198 56.7737 24.5193 59.8839 26.4414 61.8058L38.1959 73.5604C40.1129 75.4774 43.2324 75.4775 45.1497 73.5604L62.6329 56.0773C63.5616 55.1485 64.073 53.9137 64.073 52.6005V50.0269C70.2302 49.2213 75 43.9413 75 37.5677C75 30.6389 69.3629 25.0018 62.4339 25.0018ZM60.7947 52.6003C60.7947 53.038 60.6241 53.4496 60.3145 53.7592L42.8315 71.2424C42.1923 71.8815 41.1527 71.8815 40.5135 71.2424L28.7592 59.4879C28.1186 58.8471 28.1186 57.8106 28.7592 57.1699L46.2424 39.6867C46.5519 39.3771 46.9636 39.2067 47.4013 39.2067H49.9742C50.1876 40.8591 50.7236 42.4364 51.5619 43.8742C51.1836 44.4085 50.9606 45.06 50.9606 45.763C50.9606 47.5705 52.4311 49.0411 54.2387 49.0411C56.0462 49.0411 57.5168 47.5706 57.5168 45.763C57.5168 44.0651 56.2193 42.6648 54.5637 42.501C53.9263 41.4893 53.4972 40.3769 53.2904 39.2068H59.1557C60.0595 39.2068 60.7948 39.9421 60.7948 40.8459V52.6003H60.7947ZM64.073 46.7078V40.8457C64.073 38.1343 61.8671 35.9286 59.1559 35.9286H53.2938C54.0705 31.5867 57.8719 28.2798 62.4339 28.2798C67.5553 28.2798 71.7218 32.4463 71.7218 37.5676C71.7218 42.1296 68.4149 45.931 64.073 46.7078Z" fill="white"/>
</g>
<defs>
<clipPath id="clip0_1911_3">
<rect width="50" height="50" fill="white" transform="translate(25 25)"/>
</clipPath>
</defs>
</svg>
