<svg width="100" height="100" viewBox="0 0 100 100" fill="none" xmlns="http://www.w3.org/2000/svg">
<circle cx="50" cy="50" r="50" fill="#005898"/>
<path d="M68.2332 42.7327C67.2623 42.2473 52.5943 34.9133 51.5777 34.405C51.7482 33.8229 52.1055 33.3017 52.6037 32.9349C53.7251 32.1093 54.3945 30.7858 54.3945 29.3945C54.3945 26.9714 52.4231 25 50 25C47.5769 25 45.6055 26.9714 45.6055 29.3945C45.6055 30.2035 46.2613 30.8594 47.0703 30.8594C47.8793 30.8594 48.5352 30.2035 48.5352 29.3945C48.5352 28.5868 49.1923 27.9297 50 27.9297C50.8077 27.9297 51.4648 28.5868 51.4648 29.3945C51.4648 29.8653 51.2469 30.2958 50.8667 30.5757C49.6435 31.4763 48.8356 32.8324 48.605 34.3136C48.0689 34.5815 32.5503 42.3409 31.7668 42.7327C31.2705 42.981 30.957 43.4881 30.957 44.043V49.9023C30.957 50.7113 31.6129 51.3672 32.4219 51.3672H36.8164V73.5352C36.8164 74.3441 37.4723 75 38.2812 75H61.7188C62.5277 75 63.1836 74.3441 63.1836 73.5352V51.3672H67.5781C68.3871 51.3672 69.043 50.7113 69.043 49.9023V44.043C69.043 43.4881 68.7295 42.981 68.2332 42.7327ZM45.6055 39.089L50 36.8917L54.3945 39.089V40.7999C54.3945 43.2223 52.6418 45.505 50 45.5083C47.5508 45.5114 45.6055 43.5163 45.6055 41.1134V39.089ZM66.1133 48.4375H61.7188C60.9098 48.4375 60.2539 49.0934 60.2539 49.9023V72.0703H39.7461V49.9023C39.7461 49.0934 39.0902 48.4375 38.2812 48.4375H33.8867V44.9483L42.6758 40.5538V41.1133C42.6758 45.1621 45.9701 48.4817 50.0977 48.4354C54.3239 48.3881 57.3242 44.7618 57.3242 40.7998V40.5537L66.1133 44.9482V48.4375Z" fill="white"/>
</svg>
