<svg width="100" height="100" viewBox="0 0 100 100" fill="none" xmlns="http://www.w3.org/2000/svg">
<circle cx="50" cy="50" r="50" fill="#005898"/>
<g clip-path="url(#clip0_1911_5)">
<path d="M44.6411 35.7621V26.7852C44.6408 25.799 43.8411 24.9997 42.8549 25C42.3491 25.0001 41.8671 25.2148 41.5285 25.5905L25.457 43.4479C24.8693 44.1025 24.8458 45.0875 25.4017 45.7694L41.4733 65.4124C42.0977 66.1757 43.2227 66.2883 43.9861 65.6638C44.3997 65.3255 44.64 64.8199 44.6411 64.2856V55.3873C58.7485 55.8462 67.552 61.8766 71.52 73.7804C71.7634 74.5086 72.4451 74.9997 73.2129 75C73.3092 75.0003 73.4054 74.9925 73.5004 74.9768C74.3643 74.8358 74.9987 74.0896 74.9987 73.2142C74.9986 52.1855 62.3396 36.7371 44.6411 35.7621ZM42.8554 51.7854C41.8691 51.7854 41.0696 52.5849 41.0696 53.5712V59.2855L29.1356 44.6978L41.0697 31.4388V37.4995C41.0697 38.4858 41.8692 39.2853 42.8555 39.2853C56.8913 39.2853 67.395 48.9979 70.4915 63.8177C64.7431 55.8248 55.4877 51.7854 42.8554 51.7854Z" fill="white"/>
</g>
<defs>
<clipPath id="clip0_1911_5">
<rect width="50" height="50" fill="white" transform="translate(25 25)"/>
</clipPath>
</defs>
</svg>
