<svg width="40" height="40" viewBox="0 0 40 40" fill="none" xmlns="http://www.w3.org/2000/svg">
<g clip-path="url(#clip0_232_294)">
<path d="M20 0.5C30.7696 0.5 39.5 9.23045 39.5 20C39.5 30.7696 30.7696 39.5 20 39.5C9.23045 39.5 0.5 30.7696 0.5 20C0.5 9.23045 9.23045 0.5 20 0.5Z" fill="white" stroke="white"/>
<path d="M24.7358 9.47363H15.2621C13.7267 9.47363 12.2541 10.0836 11.1684 11.1693C10.0826 12.2551 9.47266 13.7276 9.47266 15.2631V24.7368C9.47266 26.2723 10.0826 27.7448 11.1684 28.8306C12.2541 29.9163 13.7267 30.5263 15.2621 30.5263H24.7358C26.2713 30.5263 27.7439 29.9163 28.8296 28.8306C29.9153 27.7448 30.5253 26.2723 30.5253 24.7368V15.2631C30.5253 13.7276 29.9153 12.2551 28.8296 11.1693C27.7439 10.0836 26.2713 9.47363 24.7358 9.47363ZM28.6832 23.9052C28.6832 25.1727 28.1797 26.3882 27.2835 27.2844C26.3872 28.1807 25.1717 28.6842 23.9042 28.6842H16.0937C14.8263 28.6842 13.6107 28.1807 12.7145 27.2844C11.8183 26.3882 11.3148 25.1727 11.3148 23.9052V16.0947C11.3148 14.8272 11.8183 13.6117 12.7145 12.7155C13.6107 11.8192 14.8263 11.3157 16.0937 11.3157H23.9042C25.1717 11.3157 26.3872 11.8192 27.2835 12.7155C28.1797 13.6117 28.6832 14.8272 28.6832 16.0947V23.9052Z" fill="#005898"/>
<path d="M23.8395 16.2L23.7895 16.15L23.7474 16.1079C22.7524 15.1164 21.4047 14.5599 20 14.5605C19.2907 14.5654 18.5892 14.7099 17.9357 14.9859C17.2822 15.2619 16.6895 15.664 16.1915 16.1691C15.6934 16.6743 15.2998 17.2726 15.033 17.9299C14.7663 18.5872 14.6317 19.2907 14.6369 20C14.6358 21.4396 15.2033 22.8214 16.2158 23.8448C16.7118 24.3468 17.3028 24.7449 17.9543 25.016C18.6059 25.2871 19.3049 25.4257 20.0105 25.4237C21.0691 25.4015 22.0983 25.0718 22.9726 24.4747C23.8469 23.8776 24.5286 23.039 24.9346 22.0612C25.3405 21.0833 25.4531 20.0085 25.2586 18.9678C25.0642 17.927 24.5711 16.9653 23.8395 16.2V16.2ZM20 23.5684C19.2922 23.5784 18.5974 23.3775 18.0041 22.9915C17.4107 22.6055 16.9456 22.0517 16.6678 21.4006C16.39 20.7495 16.3122 20.0305 16.4442 19.335C16.5762 18.6395 16.912 17.999 17.409 17.495C17.906 16.9909 18.5417 16.6461 19.2353 16.5043C19.9288 16.3625 20.6488 16.4302 21.3038 16.6987C21.9588 16.9673 22.5191 17.4246 22.9134 18.0124C23.3078 18.6003 23.5184 19.2921 23.5184 20C23.5219 20.4654 23.4336 20.9269 23.2587 21.3581C23.0837 21.7894 22.8254 22.1819 22.4987 22.5133C22.1719 22.8447 21.7831 23.1085 21.3543 23.2895C20.9256 23.4706 20.4654 23.5653 20 23.5684V23.5684Z" fill="#005898"/>
<path d="M26.9559 14.311C26.9573 14.4798 26.9254 14.6473 26.862 14.8038C26.7985 14.9603 26.7049 15.1028 26.5863 15.2231C26.4678 15.3433 26.3267 15.439 26.1711 15.5047C26.0155 15.5703 25.8485 15.6047 25.6796 15.6057C25.5122 15.6056 25.3464 15.5723 25.1919 15.5077C25.0374 15.4431 24.8973 15.3485 24.7796 15.2294C24.6013 15.0485 24.4801 14.8193 24.4308 14.5701C24.3816 14.3209 24.4066 14.0628 24.5027 13.8277C24.5988 13.5926 24.7618 13.3909 24.9715 13.2476C25.1812 13.1043 25.4283 13.0257 25.6822 13.0215C25.9795 13.0214 26.2672 13.1257 26.4954 13.3162L26.5217 13.3425C26.5642 13.3771 26.603 13.4159 26.6375 13.4583L26.6664 13.4899C26.8548 13.722 26.9571 14.0121 26.9559 14.311V14.311Z" fill="#005898"/>
</g>
<defs>
<clipPath id="clip0_232_294">
<rect width="40" height="40" fill="white"/>
</clipPath>
</defs>
</svg>
