<svg width="30" height="30" viewBox="0 0 30 30" fill="none" xmlns="http://www.w3.org/2000/svg">
<path d="M15 0C8.79562 0 3.75 5.04562 3.75 11.25C3.75 19.0481 13.905 29.2931 14.3363 29.7262C14.52 29.9081 14.76 30 15 30C15.24 30 15.48 29.9081 15.6637 29.7262C16.095 29.2931 26.25 19.0481 26.25 11.25C26.25 5.04562 21.2044 0 15 0ZM15 27.7069C12.7612 25.3106 5.625 17.2069 5.625 11.25C5.625 6.08063 9.83063 1.875 15 1.875C20.1694 1.875 24.375 6.08063 24.375 11.25C24.375 17.2013 17.2388 25.3106 15 27.7069Z" fill="#ABD7F9"/>
<path d="M15 5.625C11.8987 5.625 9.375 8.14875 9.375 11.25C9.375 14.3512 11.8987 16.875 15 16.875C18.1012 16.875 20.625 14.3512 20.625 11.25C20.625 8.14875 18.1012 5.625 15 5.625ZM15 15C12.9319 15 11.25 13.3181 11.25 11.25C11.25 9.18187 12.9319 7.5 15 7.5C17.0681 7.5 18.75 9.18187 18.75 11.25C18.75 13.3181 17.0681 15 15 15Z" fill="#ABD7F9"/>
</svg>
