<svg width="18" height="18" viewBox="0 0 18 18" fill="none" xmlns="http://www.w3.org/2000/svg">
<g clip-path="url(#clip0_232_3012)">
<path d="M9 0.75C7.36831 0.75 5.77326 1.23385 4.41655 2.14038C3.05984 3.0469 2.00242 4.33537 1.378 5.84286C0.753575 7.35035 0.590197 9.00915 0.908525 10.6095C1.22685 12.2098 2.01259 13.6799 3.16637 14.8336C4.32016 15.9874 5.79017 16.7732 7.39051 17.0915C8.99085 17.4098 10.6497 17.2464 12.1571 16.622C13.6646 15.9976 14.9531 14.9402 15.8596 13.5835C16.7662 12.2268 17.25 10.6317 17.25 9C17.2474 6.81276 16.3774 4.71584 14.8308 3.16922C13.2842 1.6226 11.1872 0.75258 9 0.75ZM9 15.75C7.66498 15.75 6.35994 15.3541 5.2499 14.6124C4.13987 13.8707 3.27471 12.8165 2.76382 11.5831C2.25293 10.3497 2.11925 8.99251 2.3797 7.68314C2.64015 6.37377 3.28303 5.17103 4.22703 4.22703C5.17104 3.28303 6.37377 2.64015 7.68314 2.3797C8.99252 2.11925 10.3497 2.25292 11.5831 2.76381C12.8165 3.2747 13.8707 4.13987 14.6124 5.2499C15.3541 6.35993 15.75 7.66498 15.75 9C15.748 10.7896 15.0362 12.5053 13.7708 13.7708C12.5053 15.0362 10.7896 15.748 9 15.75Z" fill="#25A023"/>
<path d="M12.2444 6.5723L8.2739 10.2121L6.53165 8.4698C6.46247 8.39817 6.37971 8.34103 6.28821 8.30173C6.1967 8.26242 6.09829 8.24173 5.9987 8.24087C5.89912 8.24 5.80036 8.25898 5.70819 8.29669C5.61602 8.3344 5.53228 8.39009 5.46186 8.46051C5.39144 8.53093 5.33575 8.61467 5.29804 8.70684C5.26033 8.79901 5.24135 8.89777 5.24222 8.99735C5.24308 9.09694 5.26377 9.19535 5.30308 9.28686C5.34238 9.37836 5.39952 9.46112 5.47115 9.5303L7.72115 11.7803C7.85783 11.917 8.042 11.9956 8.23526 11.9998C8.42852 12.004 8.61593 11.9334 8.7584 11.8028L13.2584 7.6778C13.405 7.54334 13.4922 7.35615 13.5008 7.1574C13.5093 6.95866 13.4386 6.76465 13.3041 6.61806C13.1697 6.47146 12.9825 6.38428 12.7838 6.3757C12.585 6.36712 12.391 6.43784 12.2444 6.5723Z" fill="#25A023"/>
</g>
<defs>
<clipPath id="clip0_232_3012">
<rect width="18" height="18" fill="white"/>
</clipPath>
</defs>
</svg>
