<svg width="50" height="50" viewBox="0 0 50 50" fill="none" xmlns="http://www.w3.org/2000/svg">
<path d="M48.5118 34.3898C49.2823 34.3479 49.8947 33.7108 49.8947 32.929C49.8947 28.7138 46.5111 25.4118 42.1917 25.4118H40.7643L39.0195 17.1304C40.7031 16.3989 41.884 14.719 41.884 12.7676C41.884 10.1463 39.754 8.01367 37.1358 8.01367H30.3863C29.5783 8.01367 28.9232 8.66953 28.9232 9.47852V11.3027H25.3268C24.5187 11.3027 23.8637 11.9586 23.8637 12.7676C23.8637 13.5766 24.5187 14.2324 25.3268 14.2324H28.9232V16.0566C28.9232 16.8656 29.5783 17.5215 30.3863 17.5215H31.0359C29.8246 18.954 29.0919 20.8045 29.0919 22.8241V31.16C29.0919 31.2027 29.0572 31.2374 29.0145 31.2374H23.1044C23.0703 31.2374 23.0398 31.2147 23.0302 31.1819L21.4369 25.7911C22.721 25.4477 23.6698 24.2733 23.6698 22.8809C23.6698 19.5745 20.9832 16.8847 17.681 16.8847H4.49863C2.01816 16.8846 0 18.9052 0 21.3888C0 23.6593 1.68682 25.5417 3.87148 25.8483C1.55391 27.9239 0.0924805 30.9392 0.0924805 34.2901V38.8506C0.0924805 39.6596 0.747559 40.3154 1.55557 40.3154H2.82148C3.50293 43.7178 6.50957 46.2891 10.1054 46.2891C13.7012 46.2891 16.7078 43.7178 17.3893 40.3154H35.2867C35.9682 43.7178 38.9748 46.2891 42.5706 46.2891C46.6671 46.2891 49.9999 42.9522 49.9999 38.8506C50 37.1783 49.4457 35.6335 48.5118 34.3898ZM46.729 31.4642H43.4353C43.1515 31.4311 42.8633 31.4121 42.5707 31.4121C42.0463 31.4121 41.5348 31.4676 41.0408 31.5715V28.3415H42.1918C44.3346 28.3415 46.1061 29.6313 46.729 31.4642ZM31.8493 10.9433H37.1358C38.1405 10.9433 38.9579 11.7616 38.9579 12.7675C38.9579 13.7733 38.1405 14.5917 37.1358 14.5917H31.8493V10.9433ZM23.1045 34.167H29.0146C30.6708 34.167 32.0181 32.8181 32.0181 31.1599V22.824C32.0181 20.3063 33.7843 18.1936 36.1414 17.663L38.1147 27.0292V32.9025C36.6829 33.9806 35.6518 35.5639 35.2868 37.3857H20.7409C20.0576 32.13 15.7176 28.1979 10.3006 28.1979C7.88506 28.1979 5.7165 28.9869 4.00557 30.3434C5.41885 27.6977 8.20518 25.8931 11.4056 25.8931H18.4159L20.2247 32.0132C20.5993 33.2814 21.7836 34.167 23.1045 34.167ZM3.1375 37.3857C3.39316 35.8273 4.05889 34.4215 5.07695 33.3322C6.40576 31.9105 8.26084 31.1274 10.3004 31.1274C14.074 31.1274 17.1226 33.7794 17.7771 37.3856H3.1375V37.3857ZM4.49863 22.9634C3.63154 22.9634 2.92607 22.257 2.92607 21.3888C2.92607 20.5205 3.63154 19.8142 4.49863 19.8142H17.681C19.3698 19.8142 20.7437 21.1897 20.7437 22.8807C20.7312 22.9409 20.6348 22.9808 20.4552 22.9632C19.238 22.9632 19.5859 22.9632 19.3324 22.9632C17.5843 22.9634 4.50713 22.9634 4.49863 22.9634ZM10.1054 43.3593C8.13437 43.3593 6.45625 42.0844 5.84746 40.3153H14.3633C13.7545 42.0844 12.0764 43.3593 10.1054 43.3593ZM42.5707 43.3593C40.0876 43.3593 38.0675 41.3366 38.0675 38.8505C38.0675 36.3644 40.0877 34.3418 42.5707 34.3418C45.0538 34.3418 47.0739 36.3644 47.0739 38.8505C47.0739 41.3366 45.0537 43.3593 42.5707 43.3593Z" fill="#005898"/>
<path d="M42.5704 40.326C43.3838 40.326 44.0432 39.6658 44.0432 38.8515C44.0432 38.0371 43.3838 37.377 42.5704 37.377C41.757 37.377 41.0977 38.0371 41.0977 38.8515C41.0977 39.6658 41.757 40.326 42.5704 40.326Z" fill="#005898"/>
<path d="M1.52559 12.6406H14.6475C15.4555 12.6406 16.1105 11.9848 16.1105 11.1758C16.1105 10.3668 15.4555 9.71094 14.6475 9.71094H1.52559C0.717578 9.71094 0.0625 10.3668 0.0625 11.1758C0.0625 11.9848 0.717578 12.6406 1.52559 12.6406Z" fill="#005898"/>
<path d="M6.38496 6.63672H19.6199C20.4279 6.63672 21.083 5.98086 21.083 5.17188C21.083 4.36289 20.4279 3.70703 19.6199 3.70703H6.38496C5.57695 3.70703 4.92188 4.36289 4.92188 5.17188C4.92188 5.98086 5.57695 6.63672 6.38496 6.63672Z" fill="#005898"/>
</svg>
