<svg width="30" height="30" viewBox="0 0 30 30" fill="none" xmlns="http://www.w3.org/2000/svg">
<path d="M8.67208 22.2255C7.36141 22.1585 7.38609 20.315 8.67203 20.251C12.3147 20.2637 21.9225 20.2544 25.681 20.257C26.709 20.257 27.5885 19.5575 27.8197 18.5559L29.9539 9.31422C30.0761 8.78507 29.9527 8.2374 29.6155 7.81172C29.2783 7.38605 28.7735 7.13847 28.2305 7.13847C26.7185 7.13847 13.884 7.08038 7.31023 7.05417L6.26817 3.18768C6.01802 2.26369 5.17482 1.61841 4.21759 1.61841H0.879373C0.393725 1.61841 0 2.01213 0 2.49778C0 2.98343 0.393725 3.37716 0.879373 3.37716H4.21759C4.38239 3.37716 4.52748 3.48825 4.57034 3.64636L8.57236 18.4946C7.86869 18.5202 7.21326 18.8064 6.71624 19.3107C6.19401 19.8407 5.91355 20.5422 5.92651 21.2861C5.95242 22.7738 7.18407 23.9842 8.67208 23.9842H9.95433C9.76374 24.3842 9.65675 24.8315 9.65675 25.3033C9.65675 27.0005 11.0375 28.3812 12.7347 28.3812C14.4319 28.3812 15.8126 27.0005 15.8126 25.3033C15.8126 24.8314 15.7055 24.3842 15.515 23.9842H21.0677C20.8773 24.3841 20.7703 24.8311 20.7703 25.3028C20.7703 27 22.1511 28.3807 23.8482 28.3807C25.5454 28.3807 26.9262 27 26.9262 25.3028C26.9262 24.8128 26.8104 24.3494 26.6058 23.9377C26.9538 23.8205 27.2048 23.4923 27.2048 23.1049C27.2048 22.6192 26.811 22.2255 26.3254 22.2255H8.67208ZM14.0538 25.3033C14.0538 26.0308 13.462 26.6225 12.7346 26.6225C12.0072 26.6225 11.4154 26.0308 11.4154 25.3033C11.4154 24.5763 12.0066 23.9848 12.7335 23.9842H12.7357C13.4626 23.9848 14.0538 24.5763 14.0538 25.3033ZM23.8482 26.6221C23.1209 26.6221 22.5291 26.0302 22.5291 25.3029C22.5291 24.5827 23.1093 23.9958 23.8268 23.9842H23.8697C24.5873 23.9958 25.1675 24.5827 25.1675 25.3029C25.1675 26.0302 24.5757 26.6221 23.8482 26.6221V26.6221ZM28.2369 8.90367C28.2421 8.91024 28.2414 8.91334 28.2402 8.91838L27.341 12.8125H24.2959L24.8144 8.88333L28.2234 8.89704C28.2286 8.89716 28.2317 8.89716 28.2369 8.90367V8.90367ZM19.1709 18.4982V14.5713H22.2898L21.7716 18.4982H19.1709ZM14.8102 18.4982L14.2878 14.5713H17.4121V18.4982H14.8102ZM10.762 18.4982H10.7592C10.5449 18.4982 10.3561 18.3536 10.3003 18.1476L9.33642 14.5713H12.5135L13.0359 18.4982H10.762ZM14.0537 12.8126L13.5249 8.83789L17.4121 8.85355V12.8126H14.0537ZM19.1709 12.8126V8.86064L23.0414 8.87623L22.5219 12.8126H19.1709ZM11.7497 8.83068L12.2794 12.8125H8.86238L7.78486 8.81468L11.7497 8.83068ZM25.681 18.4982H23.5455L24.0638 14.5713H26.9348L26.106 18.1601C26.06 18.3592 25.8853 18.4982 25.681 18.4982Z" fill="white"/>
</svg>
