<svg width="46" height="46" viewBox="0 0 46 46" fill="none" xmlns="http://www.w3.org/2000/svg">
<g clip-path="url(#clip0_232_35)">
<path d="M23.0001 0C35.7026 0 46 10.2974 46 22.9999C46 35.7024 35.7026 46.0001 23.0001 46.0001C10.2976 46.0001 -0.000141144 35.7024 -0.000141144 22.9999C0.0141792 10.3033 10.3031 0.0143188 23.0001 0V0ZM23.0001 43.6999C34.4325 43.6999 43.7001 34.4322 43.7001 22.9999C43.7001 11.5675 34.4325 2.29986 23.0001 2.29986C11.5678 2.29986 2.30014 11.5675 2.30014 22.9999C2.31319 34.4267 11.5733 43.6868 23.0001 43.6999Z" fill="black"/>
<path d="M25.6939 14.0841C26.1724 13.6659 26.8988 13.7148 27.317 14.1928C27.7348 14.6712 27.6859 15.3977 27.2079 15.8159L18.9973 22.9997L27.2084 30.184C27.6868 30.6022 27.7352 31.3287 27.3174 31.8067C26.8992 32.2851 26.1728 32.3339 25.6944 31.9157L16.4945 23.8656C16.2448 23.6474 16.1016 23.3316 16.1016 22.9997C16.1016 22.6679 16.2448 22.3524 16.4945 22.1339L25.6939 14.0841Z" fill="black"/>
</g>
<defs>
<clipPath id="clip0_232_35">
<rect width="46" height="46" fill="white" transform="matrix(-1 0 0 1 46 0)"/>
</clipPath>
</defs>
</svg>
