<svg width="26" height="26" viewBox="0 0 26 26" fill="none" xmlns="http://www.w3.org/2000/svg">
<path d="M24.2354 10.4152C24.1577 10.1761 23.9512 10.0019 23.7025 9.96586L16.7171 8.95076L13.593 2.6209C13.4819 2.39557 13.2523 2.25293 13.0011 2.25293C12.7498 2.25293 12.5203 2.39557 12.4091 2.6209L9.2849 8.95076L2.29959 9.96586C2.05098 10.0019 1.84435 10.1761 1.76672 10.4151C1.68904 10.6541 1.75382 10.9165 1.93378 11.0919L6.98827 16.019L5.79524 22.9763C5.75273 23.2239 5.85457 23.4742 6.05785 23.6219C6.17285 23.7055 6.30906 23.748 6.44593 23.748C6.55103 23.748 6.65648 23.7229 6.75303 23.6722L13.001 20.3873L19.2488 23.6721C19.4713 23.789 19.7407 23.7696 19.944 23.6219C20.1473 23.4742 20.2492 23.2239 20.2067 22.9762L19.0133 16.019L24.0683 11.0918C24.2483 10.9165 24.3131 10.6541 24.2354 10.4152Z" fill="#F45D1B"/>
</svg>
