<svg width="26" height="26" viewBox="0 0 26 26" fill="none" xmlns="http://www.w3.org/2000/svg">
<path fill-rule="evenodd" clip-rule="evenodd" d="M0.813867 2.65225C1.32155 2.14456 2.14466 2.14456 2.65234 2.65225L21.6139 21.6138C22.1215 22.1215 22.1215 22.9446 21.6139 23.4522C21.1062 23.9599 20.2831 23.9599 19.7754 23.4522L0.813867 4.49072C0.306185 3.98304 0.306185 3.15993 0.813867 2.65225Z" fill="#B3B3B3"/>
<path fill-rule="evenodd" clip-rule="evenodd" d="M4.94328 9.84604L0.58462 14.2023C-0.194873 14.9818 -0.194873 16.2471 0.58462 17.0266L7.01277 23.4495C7.79227 24.229 9.05761 24.229 9.8371 23.4495L14.1919 19.0947L4.94328 9.84604ZM16.6432 16.6434L14.8047 18.4818L5.55628 9.23338L7.39526 7.39541L16.6432 16.6434ZM17.256 16.0305L19.506 13.7805C19.7837 13.5029 19.9972 13.1719 20.136 12.8195C21.1077 13.0918 22.0527 13.2359 22.8856 13.2306C24.9465 13.2199 25.6299 12.3176 25.8541 11.7784C26.0783 11.2445 26.2385 10.1233 24.7916 8.64973L24.7436 8.60168C23.8466 7.70473 22.5439 6.87718 21.065 6.2632C20.7927 6.15108 20.5204 6.04964 20.2535 5.95353V5.93752C20.2375 4.75226 19.2818 3.79657 18.0965 3.78056L12.3037 3.70047C11.5349 3.68979 10.7981 3.98878 10.2589 4.53336L8.00826 6.78275L17.256 16.0305ZM16.8045 7.16015C16.1585 6.51413 15.112 6.51413 14.466 7.16015C13.82 7.80617 13.82 8.85262 14.4607 9.4933C15.1067 10.1393 16.1531 10.1393 16.7992 9.4933C16.8098 9.47995 16.8218 9.4666 16.8339 9.45325C16.8459 9.43991 16.8579 9.42656 16.8686 9.41321C17.5253 9.89906 18.3368 10.3475 19.2017 10.7106C22.1595 11.9439 24.1082 11.5595 24.2898 11.127C24.3485 10.9882 24.2738 10.5344 23.5797 9.82432L23.5477 9.79228C22.8162 9.06084 21.679 8.34541 20.4137 7.81685C20.3896 7.80617 20.3669 7.79683 20.3443 7.78748C20.3216 7.77814 20.2989 7.7688 20.2748 7.75812L20.3069 10.0859C20.0399 9.99516 19.7623 9.88838 19.474 9.77093C18.6625 9.43457 17.9043 9.01813 17.269 8.56965C17.3437 8.07312 17.1889 7.54456 16.8045 7.16015Z" fill="#B3B3B3"/>
</svg>
