<svg width="40" height="40" viewBox="0 0 40 40" fill="none" xmlns="http://www.w3.org/2000/svg">
<path d="M39.5 20C39.5 30.7696 30.7696 39.5 20 39.5C9.23045 39.5 0.5 30.7696 0.5 20C0.5 9.23045 9.23045 0.5 20 0.5C30.7696 0.5 39.5 9.23045 39.5 20Z" fill="white" stroke="white"/>
<path d="M31.526 27.8275C30.9442 27.9093 28.0988 27.8275 27.951 27.8275C27.2155 27.8369 26.5059 27.556 25.976 27.0457C25.376 26.4684 24.8397 25.832 24.2533 25.2275C24.0799 25.0439 23.8922 24.8745 23.6919 24.7207C23.2238 24.3593 22.7601 24.4411 22.5397 24.9934C22.3674 25.5902 22.2473 26.2008 22.1806 26.8184C22.1419 27.3775 21.7874 27.7275 21.1601 27.7661C20.7715 27.7866 20.3828 27.7934 19.9988 27.7843C18.599 27.7753 17.2212 27.435 15.9783 26.7911C14.6335 26.0417 13.4618 25.0171 12.5397 23.7843C11.0238 21.8479 9.81239 19.7207 8.73058 17.5275C8.67376 17.4184 7.56467 15.0593 7.53739 14.9479C7.43739 14.5752 7.53739 14.2184 7.84421 14.0957C8.03967 14.0207 11.6942 14.0957 11.7556 14.0957C12.0273 14.0933 12.2927 14.1775 12.5133 14.336C12.734 14.4946 12.8984 14.7192 12.9828 14.9775C13.6584 16.7073 14.5834 18.329 15.7283 19.7911C15.8885 19.9866 16.0761 20.1581 16.2851 20.3002C16.5828 20.5025 16.8647 20.432 16.9874 20.0888C17.1328 19.6127 17.2183 19.1202 17.2419 18.6229C17.2624 17.6366 17.2419 16.9866 17.1874 16.0025C17.151 15.3707 16.9283 14.8161 15.9965 14.6388C15.7101 14.5888 15.6851 14.3525 15.8692 14.1161C16.2533 13.6252 16.7783 13.5479 17.3669 13.5184C18.2442 13.4684 19.1215 13.5025 19.9988 13.5184H20.1897C20.5715 13.517 20.9524 13.5558 21.326 13.6343C21.5469 13.679 21.7475 13.7938 21.8978 13.9617C22.0481 14.1296 22.1401 14.3416 22.1601 14.5661C22.205 14.815 22.224 15.0679 22.2169 15.3207C22.1942 16.3979 22.1419 17.4729 22.1306 18.5502C22.1201 18.9767 22.159 19.4031 22.2465 19.8207C22.3715 20.3934 22.7647 20.5366 23.1556 20.1229C23.6617 19.5882 24.126 19.0153 24.5442 18.4093C25.2837 17.3048 25.8938 16.119 26.3624 14.8752C26.6169 14.2366 26.8169 14.0957 27.4988 14.0957H31.376C31.6066 14.0916 31.8364 14.1223 32.0578 14.1866C32.1362 14.2072 32.2095 14.2437 32.2731 14.2939C32.3367 14.3442 32.3892 14.407 32.4274 14.4785C32.4656 14.5499 32.4886 14.6285 32.495 14.7093C32.5014 14.7901 32.4911 14.8713 32.4647 14.9479C32.2738 15.7979 31.8147 16.5229 31.3283 17.2207C30.5397 18.3388 29.7078 19.4275 28.901 20.5275C28.799 20.6734 28.7056 20.8251 28.6215 20.982C28.3169 21.5297 28.3397 21.8366 28.7806 22.2934C29.4851 23.0161 30.2374 23.6957 30.9169 24.4411C31.4159 24.983 31.8661 25.5679 32.2624 26.1888C32.7601 26.9593 32.4533 27.6957 31.526 27.8275Z" fill="#005898"/>
</svg>
