<svg width="40" height="40" viewBox="0 0 40 40" fill="none" xmlns="http://www.w3.org/2000/svg">
<g clip-path="url(#clip0_232_285)">
<path d="M39.5 20C39.5 30.7696 30.7696 39.5 20 39.5C9.23045 39.5 0.5 30.7696 0.5 20C0.5 9.23045 9.23045 0.5 20 0.5C30.7696 0.5 39.5 9.23045 39.5 20Z" stroke="white"/>
<path d="M0.5 20C0.5 9.22989 9.22989 0.5 20 0.5C30.7701 0.5 39.5 9.22989 39.5 20C39.5 30.7689 30.7701 39.5 20 39.5C9.22991 39.5 0.5 30.7689 0.5 20Z" fill="white" stroke="white"/>
<path d="M29.8 23.993C29.8 23.993 30 22.3743 30 20.7555V19.238C30 17.6193 29.8 16.0018 29.8 16.0018C29.8 16.0018 29.605 14.623 29.005 14.0155C28.245 13.2193 27.3925 13.2155 27.0012 13.1693C24.2025 12.9668 20.0037 12.9668 20.0037 12.9668H19.9963C19.9963 12.9668 15.7975 12.9668 12.9988 13.1693C12.6075 13.2155 11.755 13.2193 10.995 14.0155C10.395 14.623 10.2 16.0018 10.2 16.0018C10.2 16.0018 10 17.6193 10 19.238V20.7555C10 22.3743 10.2 23.993 10.2 23.993C10.2 23.993 10.395 25.3705 10.995 25.978C11.755 26.7743 12.755 26.7493 13.2 26.833C14.8 26.9855 20 27.033 20 27.033C20 27.033 24.2025 27.0268 27.0012 26.8243C27.3925 26.778 28.245 26.7743 29.005 25.978C29.605 25.3705 29.8 23.993 29.8 23.993Z" fill="#005898"/>
<path fill-rule="evenodd" clip-rule="evenodd" d="M17.9348 22.5936L23.3386 19.7936L17.9336 16.9736L17.9348 22.5936Z" fill="white"/>
</g>
<defs>
<clipPath id="clip0_232_285">
<rect width="40" height="40" fill="white"/>
</clipPath>
</defs>
</svg>
