<svg width="22" height="22" viewBox="0 0 22 22" fill="none" xmlns="http://www.w3.org/2000/svg">
<path d="M17.4174 8.24961C17.4181 8.37024 17.395 8.48984 17.3494 8.60152C17.3038 8.7132 17.2365 8.81478 17.1516 8.90044L11.6516 14.4004C11.4798 14.5712 11.2475 14.667 11.0053 14.667C10.7632 14.667 10.5308 14.5712 10.3591 14.4004L4.85909 8.90044C4.70892 8.72508 4.63044 8.49951 4.63936 8.26881C4.64827 8.0381 4.7439 7.81926 4.90716 7.65601C5.07041 7.49275 5.28925 7.39712 5.51996 7.3882C5.75066 7.37929 5.97623 7.45777 6.15159 7.60794L11.0008 12.4571L15.8499 7.60794C15.9776 7.47922 16.1406 7.39125 16.3182 7.35514C16.4959 7.31904 16.6803 7.33643 16.848 7.40511C17.0158 7.47379 17.1595 7.59068 17.2608 7.741C17.3622 7.89132 17.4167 8.06831 17.4174 8.24961Z" fill="#005898"/>
</svg>
