<svg width="100" height="100" viewBox="0 0 100 100" fill="none" xmlns="http://www.w3.org/2000/svg">
<circle cx="50" cy="50" r="50" fill="#005898"/>
<path d="M73.5118 59.3916C74.2823 59.3497 74.8947 58.7127 74.8947 57.9308C74.8947 53.7156 71.5111 50.4137 67.1917 50.4137H65.7643L64.0195 42.1322C65.7031 41.4008 66.884 39.7209 66.884 37.7694C66.884 35.1481 64.754 33.0155 62.1358 33.0155H55.3863C54.5783 33.0155 53.9232 33.6714 53.9232 34.4803V36.3046H50.3268C49.5187 36.3046 48.8637 36.9604 48.8637 37.7694C48.8637 38.5784 49.5187 39.2343 50.3268 39.2343H53.9232V41.0585C53.9232 41.8675 54.5783 42.5233 55.3863 42.5233H56.0359C54.8246 43.9558 54.0919 45.8063 54.0919 47.826V56.1618C54.0919 56.2046 54.0572 56.2392 54.0145 56.2392H48.1044C48.0703 56.2392 48.0398 56.2165 48.0302 56.1838L46.4369 50.7929C47.721 50.4495 48.6698 49.2752 48.6698 47.8827C48.6698 44.5763 45.9832 41.8865 42.681 41.8865H29.4986C27.0182 41.8864 25 43.907 25 46.3906C25 48.6611 26.6868 50.5435 28.8715 50.8502C26.5539 52.9258 25.0925 55.941 25.0925 59.292V63.8524C25.0925 64.6614 25.7476 65.3173 26.5556 65.3173H27.8215C28.5029 68.7196 31.5096 71.2909 35.1054 71.2909C38.7012 71.2909 41.7078 68.7196 42.3893 65.3173H60.2867C60.9682 68.7196 63.9748 71.2909 67.5706 71.2909C71.6671 71.2909 74.9999 67.954 74.9999 63.8524C75 62.1802 74.4457 60.6353 73.5118 59.3916ZM71.729 56.466H68.4353C68.1515 56.4329 67.8633 56.4139 67.5707 56.4139C67.0463 56.4139 66.5348 56.4694 66.0408 56.5733V53.3433H67.1918C69.3346 53.3433 71.1061 54.6331 71.729 56.466ZM56.8493 35.9451H62.1358C63.1405 35.9451 63.9579 36.7635 63.9579 37.7693C63.9579 38.7752 63.1405 39.5935 62.1358 39.5935H56.8493V35.9451ZM48.1045 59.1688H54.0146C55.6708 59.1688 57.0181 57.8199 57.0181 56.1617V47.8259C57.0181 45.3081 58.7843 43.1954 61.1414 42.6648L63.1147 52.031V57.9044C61.6829 58.9824 60.6518 60.5657 60.2868 62.3875H45.7409C45.0576 57.1318 40.7176 53.1997 35.3006 53.1997C32.8851 53.1997 30.7165 53.9888 29.0056 55.3452C30.4188 52.6995 33.2052 50.8949 36.4056 50.8949H43.4159L45.2247 57.015C45.5993 58.2832 46.7836 59.1688 48.1045 59.1688ZM28.1375 62.3875C28.3932 60.8291 29.0589 59.4233 30.077 58.3341C31.4058 56.9123 33.2608 56.1293 35.3004 56.1293C39.074 56.1293 42.1226 58.7812 42.7771 62.3874H28.1375V62.3875ZM29.4986 47.9652C28.6315 47.9652 27.9261 47.2589 27.9261 46.3906C27.9261 45.5223 28.6315 44.816 29.4986 44.816H42.681C44.3698 44.816 45.7437 46.1916 45.7437 47.8825C45.7312 47.9428 45.6348 47.9826 45.4552 47.965C44.238 47.965 44.5859 47.965 44.3324 47.965C42.5843 47.9652 29.5071 47.9652 29.4986 47.9652ZM35.1054 68.3611C33.1344 68.3611 31.4562 67.0862 30.8475 65.3172H39.3633C38.7545 67.0862 37.0764 68.3611 35.1054 68.3611ZM67.5707 68.3611C65.0876 68.3611 63.0675 66.3385 63.0675 63.8523C63.0675 61.3662 65.0877 59.3436 67.5707 59.3436C70.0538 59.3436 72.0739 61.3662 72.0739 63.8523C72.0739 66.3385 70.0537 68.3611 67.5707 68.3611Z" fill="white"/>
<path d="M67.5704 65.327C68.3838 65.327 69.0432 64.6668 69.0432 63.8524C69.0432 63.0381 68.3838 62.3779 67.5704 62.3779C66.757 62.3779 66.0977 63.0381 66.0977 63.8524C66.0977 64.6668 66.757 65.327 67.5704 65.327Z" fill="white"/>
<path d="M26.5256 37.6406H39.6475C40.4555 37.6406 41.1105 36.9848 41.1105 36.1758C41.1105 35.3668 40.4555 34.7109 39.6475 34.7109H26.5256C25.7176 34.7109 25.0625 35.3668 25.0625 36.1758C25.0625 36.9848 25.7176 37.6406 26.5256 37.6406Z" fill="white"/>
<path d="M31.385 31.6377H44.6199C45.4279 31.6377 46.083 30.9818 46.083 30.1729C46.083 29.3639 45.4279 28.708 44.6199 28.708H31.385C30.577 28.708 29.9219 29.3639 29.9219 30.1729C29.9219 30.9818 30.577 31.6377 31.385 31.6377Z" fill="white"/>
</svg>
