<svg width="50" height="50" viewBox="0 0 50 50" fill="none" xmlns="http://www.w3.org/2000/svg">
<path d="M43.2332 17.7327C42.2623 17.2473 27.5943 9.91328 26.5777 9.40498C26.7482 8.82295 27.1055 8.30166 27.6037 7.93486C28.7251 7.10928 29.3945 5.78584 29.3945 4.39453C29.3945 1.97139 27.4231 0 25 0C22.5769 0 20.6055 1.97139 20.6055 4.39453C20.6055 5.20352 21.2613 5.85938 22.0703 5.85938C22.8793 5.85938 23.5352 5.20352 23.5352 4.39453C23.5352 3.58682 24.1923 2.92969 25 2.92969C25.8077 2.92969 26.4648 3.58682 26.4648 4.39453C26.4648 4.86533 26.2469 5.2958 25.8667 5.57568C24.6435 6.47627 23.8356 7.83242 23.605 9.31357C23.0689 9.58154 7.55029 17.3409 6.7668 17.7327C6.27051 17.981 5.95703 18.4881 5.95703 19.043V24.9023C5.95703 25.7113 6.61289 26.3672 7.42188 26.3672H11.8164V48.5352C11.8164 49.3441 12.4723 50 13.2812 50H36.7188C37.5277 50 38.1836 49.3441 38.1836 48.5352V26.3672H42.5781C43.3871 26.3672 44.043 25.7113 44.043 24.9023V19.043C44.043 18.4881 43.7295 17.981 43.2332 17.7327ZM20.6055 14.089L25 11.8917L29.3945 14.089V15.7999C29.3945 18.2223 27.6418 20.505 25 20.5083C22.5508 20.5114 20.6055 18.5163 20.6055 16.1134V14.089ZM41.1133 23.4375H36.7188C35.9098 23.4375 35.2539 24.0934 35.2539 24.9023V47.0703H14.7461V24.9023C14.7461 24.0934 14.0902 23.4375 13.2812 23.4375H8.88672V19.9483L17.6758 15.5538V16.1133C17.6758 20.1621 20.9701 23.4817 25.0977 23.4354C29.3239 23.3881 32.3242 19.7618 32.3242 15.7998V15.5537L41.1133 19.9482V23.4375Z" fill="#005898"/>
</svg>
