<svg width="46" height="46" viewBox="0 0 46 46" fill="none" xmlns="http://www.w3.org/2000/svg">
<g clip-path="url(#clip0_232_26)">
<path d="M22.9999 0C10.2974 0 0 10.2974 0 22.9999C0 35.7024 10.2974 46.0001 22.9999 46.0001C35.7024 46.0001 46.0001 35.7024 46.0001 22.9999C45.9858 10.3033 35.6969 0.0143188 22.9999 0V0ZM22.9999 43.6999C11.5675 43.6999 2.29986 34.4322 2.29986 22.9999C2.29986 11.5675 11.5675 2.29986 22.9999 2.29986C34.4322 2.29986 43.6999 11.5675 43.6999 22.9999C43.6868 34.4267 34.4267 43.6868 22.9999 43.6999Z" fill="black"/>
<path d="M20.3061 14.0841C19.8276 13.6659 19.1012 13.7148 18.683 14.1928C18.2652 14.6712 18.3141 15.3977 18.7921 15.8159L27.0027 22.9997L18.7916 30.184C18.3132 30.6022 18.2648 31.3287 18.6826 31.8067C19.1008 32.2851 19.8272 32.3339 20.3056 31.9157L29.5055 23.8656C29.7552 23.6474 29.8984 23.3316 29.8984 22.9997C29.8984 22.6679 29.7552 22.3524 29.5055 22.1339L20.3061 14.0841Z" fill="black"/>
</g>
<defs>
<clipPath id="clip0_232_26">
<rect width="46" height="46" fill="white"/>
</clipPath>
</defs>
</svg>
