<svg width="50" height="50" viewBox="0 0 50 50" fill="none" xmlns="http://www.w3.org/2000/svg">
<g clip-path="url(#clip0_232_3225)">
<path d="M37.4339 0.00195312C31.0605 0.00195312 25.7805 4.77168 24.9749 10.9289H22.4014C21.0878 10.9289 19.8531 11.4404 18.9245 12.3691L1.44146 29.8522C-0.480225 31.7738 -0.480713 34.884 1.44136 36.806L13.1959 48.5605C15.1129 50.4775 18.2324 50.4776 20.1497 48.5605L37.6329 31.0774C38.5616 30.1486 39.073 28.9139 39.073 27.6006V25.027C45.2302 24.2214 50 18.9414 50 12.5679C50 5.63906 44.3629 0.00195312 37.4339 0.00195312ZM35.7947 27.6004C35.7947 28.0381 35.6241 28.4497 35.3145 28.7594L17.8315 46.2425C17.1923 46.8816 16.1527 46.8816 15.5135 46.2425L3.75923 34.488C3.1186 33.8473 3.1186 32.8107 3.75923 32.17L21.2424 14.6868C21.5519 14.3772 21.9636 14.2068 22.4013 14.2068H24.9742C25.1876 15.8592 25.7236 17.4365 26.5619 18.8743C26.1836 19.4086 25.9606 20.0602 25.9606 20.7631C25.9606 22.5706 27.4311 24.0412 29.2387 24.0412C31.0462 24.0412 32.5168 22.5707 32.5168 20.7631C32.5168 19.0652 31.2193 17.6649 29.5637 17.5012C28.9263 16.4895 28.4972 15.377 28.2904 14.2069H34.1557C35.0595 14.2069 35.7948 14.9422 35.7948 15.846V27.6004H35.7947ZM39.073 21.7079V15.8458C39.073 13.1345 36.8671 10.9287 34.1559 10.9287H28.2938C29.0705 6.58682 32.8719 3.27988 37.4339 3.27988C42.5553 3.27988 46.7218 7.44639 46.7218 12.5678C46.7218 17.1297 43.4149 20.9312 39.073 21.7079Z" fill="#005898"/>
</g>
<defs>
<clipPath id="clip0_232_3225">
<rect width="50" height="50" fill="white"/>
</clipPath>
</defs>
</svg>
