<svg width="26" height="26" viewBox="0 0 26 26" fill="none" xmlns="http://www.w3.org/2000/svg">
<path d="M7.01277 23.4495C7.79227 24.229 9.05761 24.229 9.8371 23.4495L19.506 13.7805C19.7837 13.5029 19.9972 13.1719 20.136 12.8195C21.1077 13.0918 22.0527 13.2359 22.8856 13.2306C24.9465 13.2199 25.6299 12.3176 25.8541 11.7784C26.0783 11.2445 26.2385 10.1233 24.7916 8.64973C24.7756 8.63372 24.7596 8.6177 24.7436 8.60168C23.8466 7.70473 22.5439 6.87718 21.065 6.2632C20.7927 6.15108 20.5204 6.04964 20.2535 5.95353V5.93752C20.2375 4.75226 19.2818 3.79657 18.0965 3.78056L12.3037 3.70047C11.5349 3.68979 10.7981 3.98878 10.2589 4.53336L0.58462 14.2023C-0.194873 14.9818 -0.194873 16.2471 0.58462 17.0266L7.01277 23.4495ZM14.466 7.16015C15.112 6.51413 16.1585 6.51413 16.8045 7.16015C17.1889 7.54456 17.3437 8.07312 17.269 8.56965C17.9043 9.01813 18.6625 9.43457 19.474 9.77093C19.7623 9.88838 20.0399 9.99516 20.3069 10.0859L20.2748 7.75812C20.3229 7.77948 20.3656 7.79549 20.4137 7.81685C21.679 8.34541 22.8162 9.06084 23.5477 9.79228C23.5583 9.80296 23.569 9.81364 23.5797 9.82432C24.2738 10.5344 24.3485 10.9882 24.2898 11.127C24.1082 11.5595 22.1595 11.9439 19.2017 10.7106C18.3368 10.3475 17.5253 9.89906 16.8686 9.41321C16.8472 9.43991 16.8205 9.4666 16.7992 9.4933C16.1531 10.1393 15.1067 10.1393 14.4607 9.4933C13.82 8.85262 13.82 7.80617 14.466 7.16015Z" fill="#005898"/>
</svg>
