<svg width="30" height="30" viewBox="0 0 30 30" fill="none" xmlns="http://www.w3.org/2000/svg">
<g clip-path="url(#clip0_153_561)">
<path d="M25.347 27.9413H23.5831V24.7796C23.5831 21.5808 21.8276 18.6405 18.6401 16.5001C18.2437 16.234 17.9973 15.6593 17.9973 14.9999C17.9973 14.3405 18.2437 13.7661 18.6403 13.4997C21.8276 11.3595 23.5831 8.4192 23.5833 5.22041V2.05869H25.347C25.9154 2.05869 26.3762 1.59788 26.3762 1.02929C26.3762 0.460707 25.9154 0 25.347 0H4.65429C4.08591 0 3.625 0.460708 3.625 1.02919C3.625 1.59778 4.08591 2.05859 4.65429 2.05859H6.41823V5.22051C6.41823 8.4193 8.17349 11.3596 11.3613 13.4998C11.7576 13.7662 12.004 14.3406 12.004 15C12.004 15.6595 11.7576 16.2341 11.3611 16.5004C8.17349 18.6406 6.41823 21.5809 6.41823 24.7797V27.9414H4.65429C4.08591 27.9414 3.625 28.4023 3.625 28.9708C3.625 29.5394 4.08591 30.0001 4.65429 30.0001H25.3469C25.9153 30.0001 26.3761 29.5395 26.3761 28.9708C26.3762 28.4023 25.9154 27.9413 25.347 27.9413ZM8.47692 24.7796C8.47692 21.4185 11.0028 19.2205 12.5086 18.2096C13.4817 17.5564 14.0627 16.3565 14.0627 15C14.0627 13.6436 13.4817 12.4437 12.5086 11.7906C11.0028 10.7797 8.47692 8.58173 8.47692 5.22061V2.05869H21.5244L21.5242 5.22061C21.5242 8.58173 18.9983 10.7797 17.4927 11.7904C16.5194 12.4438 15.9384 13.6438 15.9384 15C15.9384 16.3566 16.5194 17.5563 17.4925 18.2096C18.9983 19.2205 21.5242 21.4185 21.5244 24.7796V27.9413H8.47692V24.7796Z" fill="white"/>
</g>
<defs>
<clipPath id="clip0_153_561">
<rect width="30" height="30" fill="white"/>
</clipPath>
</defs>
</svg>
